# MagicaVoxel @ Ephtracy

# group
o 

# material
mtllib small crate.mtl
usemtl palette

# normals
vn -1 0 0
vn 1 0 0
vn 0 0 1
vn 0 0 -1
vn 0 -1 0
vn 0 1 0

# texcoords
vt 0.369141 0.5
vt 0.373047 0.5

# verts
v 2.2 2.9 -1.4
v 2.2 2.9 -2.6
v 2.2 3 -1.6
v 2.2 3 -2.5
v 2.2 3.1 -1.5
v 2.2 3.1 -1.6
v 2.2 3.1 -2.4
v 2.2 3.2 -1.7
v 2.2 3.2 -1.8
v 2.2 3.2 -1.9
v 2.2 3.2 -2.3
v 2.2 3.3 -1.7
v 2.2 3.3 -1.8
v 2.2 3.3 -1.9
v 2.2 3.3 -2
v 2.2 3.4 -1.7
v 2.2 3.4 -1.8
v 2.2 3.4 -1.9
v 2.2 3.4 -2
v 2.2 3.4 -2.1
v 2.2 3.5 -1.8
v 2.2 3.5 -1.9
v 2.2 3.5 -2
v 2.2 3.5 -2.1
v 2.2 3.5 -2.2
v 2.2 3.6 -1.9
v 2.2 3.6 -2
v 2.2 3.6 -2.1
v 2.2 3.6 -2.2
v 2.2 3.6 -2.3
v 2.2 3.7 -2
v 2.2 3.7 -2.1
v 2.2 3.7 -2.2
v 2.2 3.7 -2.3
v 2.2 3.8 -1.7
v 2.2 3.8 -2.1
v 2.2 3.8 -2.2
v 2.2 3.8 -2.3
v 2.2 3.9 -1.6
v 2.2 3.9 -2.4
v 2.2 3.9 -2.5
v 2.2 4 -1.5
v 2.2 4 -2.4
v 2.2 4.1 -1.4
v 2.2 4.1 -2.6
v 2.3 2.9 -1.4
v 2.3 2.9 -2.6
v 2.3 3 -1.6
v 2.3 3 -2.5
v 2.3 3.1 -1.5
v 2.3 3.1 -1.6
v 2.3 3.1 -2.4
v 2.3 3.2 -1.7
v 2.3 3.2 -1.8
v 2.3 3.2 -1.9
v 2.3 3.2 -2.3
v 2.3 3.3 -1.7
v 2.3 3.3 -1.8
v 2.3 3.3 -1.9
v 2.3 3.3 -2
v 2.3 3.4 -1.7
v 2.3 3.4 -1.8
v 2.3 3.4 -1.9
v 2.3 3.4 -2
v 2.3 3.4 -2.1
v 2.3 3.5 -1.8
v 2.3 3.5 -1.9
v 2.3 3.5 -2
v 2.3 3.5 -2.1
v 2.3 3.5 -2.2
v 2.3 3.6 -1.9
v 2.3 3.6 -2
v 2.3 3.6 -2.1
v 2.3 3.6 -2.2
v 2.3 3.6 -2.3
v 2.3 3.7 -2
v 2.3 3.7 -2.1
v 2.3 3.7 -2.2
v 2.3 3.7 -2.3
v 2.3 3.8 -1.7
v 2.3 3.8 -2.1
v 2.3 3.8 -2.2
v 2.3 3.8 -2.3
v 2.3 3.9 -1.6
v 2.3 3.9 -2.4
v 2.3 3.9 -2.5
v 2.3 4 -1.5
v 2.3 4 -2.4
v 2.3 4.1 -1.4
v 2.3 4.1 -2.6
v 2.2 2.9 -1.4
v 2.2 4.1 -1.4
v 2.3 2.9 -1.4
v 2.3 4.1 -1.4
v 2.2 2.9 -2.6
v 2.2 4.1 -2.6
v 2.3 2.9 -2.6
v 2.3 4.1 -2.6
v 2.2 2.9 -1.4
v 2.3 2.9 -1.4
v 2.2 2.9 -2.6
v 2.3 2.9 -2.6
v 2.2 4.1 -1.4
v 2.3 4.1 -1.4
v 2.2 4.1 -2.6
v 2.3 4.1 -2.6

# faces
f 3/1/1 2/1/1 1/1/1
f 4/1/1 2/1/1 3/1/1
f 5/1/1 3/1/1 1/1/1
f 6/2/1 4/2/1 3/2/1
f 6/1/1 3/1/1 5/1/1
f 7/2/1 4/2/1 6/2/1
f 8/1/1 7/1/1 6/1/1
f 9/1/1 7/1/1 8/1/1
f 10/1/1 7/1/1 9/1/1
f 11/1/1 7/1/1 10/1/1
f 12/1/1 8/1/1 6/1/1
f 12/2/1 9/2/1 8/2/1
f 13/1/1 10/1/1 9/1/1
f 13/2/1 9/2/1 12/2/1
f 14/2/1 11/2/1 10/2/1
f 14/1/1 10/1/1 13/1/1
f 15/2/1 11/2/1 14/2/1
f 16/1/1 13/1/1 12/1/1
f 16/1/1 12/1/1 6/1/1
f 17/2/1 14/2/1 13/2/1
f 17/1/1 13/1/1 16/1/1
f 18/1/1 15/1/1 14/1/1
f 18/2/1 14/2/1 17/2/1
f 19/2/1 11/2/1 15/2/1
f 19/1/1 15/1/1 18/1/1
f 20/2/1 11/2/1 19/2/1
f 21/1/1 18/1/1 17/1/1
f 21/2/1 17/2/1 16/2/1
f 22/2/1 19/2/1 18/2/1
f 22/1/1 18/1/1 21/1/1
f 23/1/1 20/1/1 19/1/1
f 23/2/1 19/2/1 22/2/1
f 24/2/1 11/2/1 20/2/1
f 24/1/1 20/1/1 23/1/1
f 25/2/1 11/2/1 24/2/1
f 26/1/1 23/1/1 22/1/1
f 26/2/1 22/2/1 21/2/1
f 27/2/1 24/2/1 23/2/1
f 27/1/1 23/1/1 26/1/1
f 28/1/1 25/1/1 24/1/1
f 28/2/1 24/2/1 27/2/1
f 29/2/1 11/2/1 25/2/1
f 29/1/1 25/1/1 28/1/1
f 30/1/1 7/1/1 11/1/1
f 30/2/1 11/2/1 29/2/1
f 31/1/1 28/1/1 27/1/1
f 31/2/1 27/2/1 26/2/1
f 32/2/1 29/2/1 28/2/1
f 32/1/1 28/1/1 31/1/1
f 33/1/1 30/1/1 29/1/1
f 33/2/1 29/2/1 32/2/1
f 34/1/1 7/1/1 30/1/1
f 34/1/1 30/1/1 33/1/1
f 35/2/1 31/2/1 26/2/1
f 35/2/1 32/2/1 31/2/1
f 35/1/1 16/1/1 6/1/1
f 35/2/1 26/2/1 21/2/1
f 35/2/1 21/2/1 16/2/1
f 36/1/1 33/1/1 32/1/1
f 36/2/1 32/2/1 35/2/1
f 37/2/1 34/2/1 33/2/1
f 37/1/1 33/1/1 36/1/1
f 38/1/1 7/1/1 34/1/1
f 38/2/1 34/2/1 37/2/1
f 39/2/1 6/2/1 5/2/1
f 39/1/1 37/1/1 36/1/1
f 39/1/1 38/1/1 37/1/1
f 39/1/1 36/1/1 35/1/1
f 39/1/1 35/1/1 6/1/1
f 40/1/1 7/1/1 38/1/1
f 40/1/1 38/1/1 39/1/1
f 40/2/1 4/2/1 7/2/1
f 41/1/1 2/1/1 4/1/1
f 41/2/1 4/2/1 40/2/1
f 42/2/1 40/2/1 39/2/1
f 42/1/1 5/1/1 1/1/1
f 42/2/1 39/2/1 5/2/1
f 43/1/1 41/1/1 40/1/1
f 43/2/1 40/2/1 42/2/1
f 44/1/1 42/1/1 1/1/1
f 44/1/1 43/1/1 42/1/1
f 45/1/1 2/1/1 41/1/1
f 45/1/1 43/1/1 44/1/1
f 45/1/1 41/1/1 43/1/1
f 46/1/2 47/1/2 48/1/2
f 48/1/2 47/1/2 49/1/2
f 46/1/2 48/1/2 50/1/2
f 48/2/2 49/2/2 51/2/2
f 50/1/2 48/1/2 51/1/2
f 51/2/2 49/2/2 52/2/2
f 51/1/2 52/1/2 53/1/2
f 53/1/2 52/1/2 54/1/2
f 54/1/2 52/1/2 55/1/2
f 55/1/2 52/1/2 56/1/2
f 51/1/2 53/1/2 57/1/2
f 53/2/2 54/2/2 57/2/2
f 54/1/2 55/1/2 58/1/2
f 57/2/2 54/2/2 58/2/2
f 55/2/2 56/2/2 59/2/2
f 58/1/2 55/1/2 59/1/2
f 59/2/2 56/2/2 60/2/2
f 57/1/2 58/1/2 61/1/2
f 51/1/2 57/1/2 61/1/2
f 58/2/2 59/2/2 62/2/2
f 61/1/2 58/1/2 62/1/2
f 59/1/2 60/1/2 63/1/2
f 62/2/2 59/2/2 63/2/2
f 60/2/2 56/2/2 64/2/2
f 63/1/2 60/1/2 64/1/2
f 64/2/2 56/2/2 65/2/2
f 62/1/2 63/1/2 66/1/2
f 61/2/2 62/2/2 66/2/2
f 63/2/2 64/2/2 67/2/2
f 66/1/2 63/1/2 67/1/2
f 64/1/2 65/1/2 68/1/2
f 67/2/2 64/2/2 68/2/2
f 65/2/2 56/2/2 69/2/2
f 68/1/2 65/1/2 69/1/2
f 69/2/2 56/2/2 70/2/2
f 67/1/2 68/1/2 71/1/2
f 66/2/2 67/2/2 71/2/2
f 68/2/2 69/2/2 72/2/2
f 71/1/2 68/1/2 72/1/2
f 69/1/2 70/1/2 73/1/2
f 72/2/2 69/2/2 73/2/2
f 70/2/2 56/2/2 74/2/2
f 73/1/2 70/1/2 74/1/2
f 56/1/2 52/1/2 75/1/2
f 74/2/2 56/2/2 75/2/2
f 72/1/2 73/1/2 76/1/2
f 71/2/2 72/2/2 76/2/2
f 73/2/2 74/2/2 77/2/2
f 76/1/2 73/1/2 77/1/2
f 74/1/2 75/1/2 78/1/2
f 77/2/2 74/2/2 78/2/2
f 75/1/2 52/1/2 79/1/2
f 78/1/2 75/1/2 79/1/2
f 71/2/2 76/2/2 80/2/2
f 76/2/2 77/2/2 80/2/2
f 51/1/2 61/1/2 80/1/2
f 66/2/2 71/2/2 80/2/2
f 61/2/2 66/2/2 80/2/2
f 77/1/2 78/1/2 81/1/2
f 80/2/2 77/2/2 81/2/2
f 78/2/2 79/2/2 82/2/2
f 81/1/2 78/1/2 82/1/2
f 79/1/2 52/1/2 83/1/2
f 82/2/2 79/2/2 83/2/2
f 50/2/2 51/2/2 84/2/2
f 81/1/2 82/1/2 84/1/2
f 82/1/2 83/1/2 84/1/2
f 80/1/2 81/1/2 84/1/2
f 51/1/2 80/1/2 84/1/2
f 83/1/2 52/1/2 85/1/2
f 84/1/2 83/1/2 85/1/2
f 52/2/2 49/2/2 85/2/2
f 49/1/2 47/1/2 86/1/2
f 85/2/2 49/2/2 86/2/2
f 84/2/2 85/2/2 87/2/2
f 46/1/2 50/1/2 87/1/2
f 50/2/2 84/2/2 87/2/2
f 85/1/2 86/1/2 88/1/2
f 87/2/2 85/2/2 88/2/2
f 46/1/2 87/1/2 89/1/2
f 87/1/2 88/1/2 89/1/2
f 86/1/2 47/1/2 90/1/2
f 89/1/2 88/1/2 90/1/2
f 88/1/2 86/1/2 90/1/2
f 93/1/3 92/1/3 91/1/3
f 94/1/3 92/1/3 93/1/3
f 95/1/4 96/1/4 97/1/4
f 97/1/4 96/1/4 98/1/4
f 101/1/5 100/1/5 99/1/5
f 102/1/5 100/1/5 101/1/5
f 103/1/6 104/1/6 105/1/6
f 105/1/6 104/1/6 106/1/6
