# MagicaVoxel @ Ephtracy

# group
o 

# material
mtllib SMG.mtl
usemtl palette

# normals
vn -1 0 0
vn 1 0 0
vn 0 0 1
vn 0 0 -1
vn 0 -1 0
vn 0 1 0

# texcoords
vt 0.841797 0.5
vt 0.974609 0.5
vt 0.982422 0.5
vt 0.994141 0.5

# verts
v 1.8 3.5 -1
v 1.8 3.5 -2.4
v 1.8 3.6 -1.1
v 1.8 3.6 -2.3
v 1.8 3.7 -2.2
v 1.8 3.7 -2.3
v 1.8 3.7 -2.4
v 1.8 3.8 -2.1
v 1.8 3.8 -2.2
v 1.8 3.8 -2.3
v 1.8 3.8 -2.4
v 1.8 3.8 -2.5
v 1.8 3.9 -1.9
v 1.8 3.9 -2.1
v 1.8 3.9 -2.2
v 1.8 4 -1.8
v 1.8 4 -1.9
v 1.8 4 -2.1
v 1.8 4 -2.5
v 1.8 4.1 -1.7
v 1.8 4.1 -1.8
v 1.8 4.1 -1.9
v 1.8 4.1 -2.1
v 1.8 4.1 -2.5
v 1.8 4.1 -2.6
v 1.8 4.2 -1.6
v 1.8 4.2 -1.7
v 1.8 4.2 -1.8
v 1.8 4.2 -2.5
v 1.8 4.2 -2.6
v 1.8 4.2 -2.7
v 1.8 4.3 -1.5
v 1.8 4.3 -1.6
v 1.8 4.3 -1.7
v 1.8 4.3 -2
v 1.8 4.3 -2.2
v 1.8 4.3 -2.7
v 1.8 4.3 -2.9
v 1.8 4.4 -1.4
v 1.8 4.4 -1.5
v 1.8 4.4 -1.6
v 1.8 4.4 -2
v 1.8 4.4 -2.1
v 1.8 4.4 -2.5
v 1.8 4.4 -2.6
v 1.8 4.4 -2.8
v 1.8 4.5 -1.3
v 1.8 4.5 -1.4
v 1.8 4.5 -1.5
v 1.8 4.5 -2.1
v 1.8 4.5 -2.2
v 1.8 4.6 -1.1
v 1.8 4.6 -1.3
v 1.8 4.6 -1.4
v 1.8 4.6 -2.5
v 1.8 4.6 -2.6
v 1.8 4.6 -2.8
v 1.8 4.6 -2.9
v 1.8 4.7 -1.1
v 1.8 4.7 -2.7
v 1.8 4.7 -2.8
v 1.8 4.8 -1.1
v 1.8 4.8 -2.7
v 1.8 4.8 -2.8
v 1.8 4.9 -1
v 1.8 4.9 -2.8
v 1.9 3.5 -1
v 1.9 3.5 -2.4
v 1.9 3.6 -1.1
v 1.9 3.6 -2.3
v 1.9 3.7 -2.2
v 1.9 3.7 -2.3
v 1.9 3.7 -2.4
v 1.9 3.8 -2.1
v 1.9 3.8 -2.2
v 1.9 3.8 -2.3
v 1.9 3.8 -2.4
v 1.9 3.8 -2.5
v 1.9 3.9 -1.9
v 1.9 3.9 -2.1
v 1.9 3.9 -2.2
v 1.9 4 -1.8
v 1.9 4 -1.9
v 1.9 4 -2.1
v 1.9 4 -2.5
v 1.9 4.1 -1.7
v 1.9 4.1 -1.8
v 1.9 4.1 -1.9
v 1.9 4.1 -2.1
v 1.9 4.1 -2.5
v 1.9 4.1 -2.6
v 1.9 4.2 -1.6
v 1.9 4.2 -1.7
v 1.9 4.2 -1.8
v 1.9 4.2 -2.5
v 1.9 4.2 -2.6
v 1.9 4.2 -2.7
v 1.9 4.3 -1.5
v 1.9 4.3 -1.6
v 1.9 4.3 -1.7
v 1.9 4.3 -2
v 1.9 4.3 -2.2
v 1.9 4.3 -2.7
v 1.9 4.3 -2.9
v 1.9 4.4 -1.4
v 1.9 4.4 -1.5
v 1.9 4.4 -1.6
v 1.9 4.4 -2
v 1.9 4.4 -2.1
v 1.9 4.4 -2.5
v 1.9 4.4 -2.6
v 1.9 4.4 -2.8
v 1.9 4.5 -1.3
v 1.9 4.5 -1.4
v 1.9 4.5 -1.5
v 1.9 4.5 -2.1
v 1.9 4.5 -2.2
v 1.9 4.6 -1.1
v 1.9 4.6 -1.3
v 1.9 4.6 -1.4
v 1.9 4.6 -2.5
v 1.9 4.6 -2.6
v 1.9 4.6 -2.8
v 1.9 4.6 -2.9
v 1.9 4.7 -1.1
v 1.9 4.7 -2.7
v 1.9 4.7 -2.8
v 1.9 4.8 -1.1
v 1.9 4.8 -2.7
v 1.9 4.8 -2.8
v 1.9 4.9 -1
v 1.9 4.9 -2.8
v 1.8 3.5 -1
v 1.8 4.9 -1
v 1.9 3.5 -1
v 1.9 4.9 -1
v 1.8 3.5 -2.4
v 1.8 3.7 -2.4
v 1.8 3.8 -2.4
v 1.9 3.5 -2.4
v 1.9 3.7 -2.4
v 1.9 3.8 -2.4
v 1.8 3.8 -2.5
v 1.8 4 -2.5
v 1.8 4.1 -2.5
v 1.9 3.8 -2.5
v 1.9 4 -2.5
v 1.9 4.1 -2.5
v 1.8 4.1 -2.6
v 1.8 4.2 -2.6
v 1.9 4.1 -2.6
v 1.9 4.2 -2.6
v 1.8 4.2 -2.7
v 1.8 4.3 -2.7
v 1.9 4.2 -2.7
v 1.9 4.3 -2.7
v 1.8 4.6 -2.8
v 1.8 4.7 -2.8
v 1.8 4.8 -2.8
v 1.8 4.9 -2.8
v 1.9 4.6 -2.8
v 1.9 4.7 -2.8
v 1.9 4.8 -2.8
v 1.9 4.9 -2.8
v 1.8 4.3 -2.9
v 1.8 4.6 -2.9
v 1.9 4.3 -2.9
v 1.9 4.6 -2.9
v 1.8 3.5 -1
v 1.9 3.5 -1
v 1.8 3.5 -2.4
v 1.9 3.5 -2.4
v 1.8 3.8 -2.4
v 1.9 3.8 -2.4
v 1.8 3.8 -2.5
v 1.9 3.8 -2.5
v 1.8 4.1 -2.5
v 1.9 4.1 -2.5
v 1.8 4.1 -2.6
v 1.9 4.1 -2.6
v 1.8 4.2 -2.6
v 1.9 4.2 -2.6
v 1.8 4.2 -2.7
v 1.9 4.2 -2.7
v 1.8 4.3 -2.7
v 1.9 4.3 -2.7
v 1.8 4.3 -2.9
v 1.9 4.3 -2.9
v 1.8 4.6 -2.8
v 1.9 4.6 -2.8
v 1.8 4.6 -2.9
v 1.9 4.6 -2.9
v 1.8 4.9 -1
v 1.9 4.9 -1
v 1.8 4.9 -2.8
v 1.9 4.9 -2.8

# faces
f 3/2/1 2/2/1 1/2/1
f 4/2/1 2/2/1 3/2/1
f 5/3/1 4/3/1 3/3/1
f 6/2/1 2/2/1 4/2/1
f 6/3/1 4/3/1 5/3/1
f 7/2/1 2/2/1 6/2/1
f 8/3/1 5/3/1 3/3/1
f 9/2/1 6/2/1 5/2/1
f 9/3/1 5/3/1 8/3/1
f 10/3/1 7/3/1 6/3/1
f 10/2/1 6/2/1 9/2/1
f 11/3/1 7/3/1 10/3/1
f 13/3/1 8/3/1 3/3/1
f 14/2/1 9/2/1 8/2/1
f 14/3/1 8/3/1 13/3/1
f 15/3/1 11/3/1 10/3/1
f 15/2/1 9/2/1 14/2/1
f 15/3/1 12/3/1 11/3/1
f 15/3/1 10/3/1 9/3/1
f 16/3/1 13/3/1 3/3/1
f 17/2/1 14/2/1 13/2/1
f 17/3/1 13/3/1 16/3/1
f 18/3/1 15/3/1 14/3/1
f 18/2/1 14/2/1 17/2/1
f 19/3/1 12/3/1 15/3/1
f 19/3/1 15/3/1 18/3/1
f 20/3/1 16/3/1 3/3/1
f 21/2/1 17/2/1 16/2/1
f 21/3/1 16/3/1 20/3/1
f 22/3/1 18/3/1 17/3/1
f 22/2/1 17/2/1 21/2/1
f 23/2/1 19/2/1 18/2/1
f 23/3/1 18/3/1 22/3/1
f 24/2/1 19/2/1 23/2/1
f 26/3/1 20/3/1 3/3/1
f 27/2/1 21/2/1 20/2/1
f 27/3/1 20/3/1 26/3/1
f 28/3/1 24/3/1 23/3/1
f 28/2/1 21/2/1 27/2/1
f 28/3/1 22/3/1 21/3/1
f 28/3/1 23/3/1 22/3/1
f 29/2/1 25/2/1 24/2/1
f 29/3/1 24/3/1 28/3/1
f 30/2/1 25/2/1 29/2/1
f 32/3/1 26/3/1 3/3/1
f 33/2/1 27/2/1 26/2/1
f 33/3/1 26/3/1 32/3/1
f 34/3/1 28/3/1 27/3/1
f 34/2/1 27/2/1 33/2/1
f 34/3/1 29/3/1 28/3/1
f 34/3/1 30/3/1 29/3/1
f 35/3/1 30/3/1 34/3/1
f 36/3/1 30/3/1 35/3/1
f 37/2/1 31/2/1 30/2/1
f 39/3/1 32/3/1 3/3/1
f 40/2/1 33/2/1 32/2/1
f 40/3/1 32/3/1 39/3/1
f 41/3/1 34/3/1 33/3/1
f 41/2/1 33/2/1 40/2/1
f 41/3/1 35/3/1 34/3/1
f 42/1/1 36/1/1 35/1/1
f 42/3/1 35/3/1 41/3/1
f 43/1/1 36/1/1 42/1/1
f 44/3/1 30/3/1 36/3/1
f 45/2/1 38/2/1 37/2/1
f 45/3/1 30/3/1 44/3/1
f 45/2/1 37/2/1 30/2/1
f 46/2/1 38/2/1 45/2/1
f 47/3/1 39/3/1 3/3/1
f 48/2/1 40/2/1 39/2/1
f 48/3/1 39/3/1 47/3/1
f 49/3/1 43/3/1 42/3/1
f 49/2/1 40/2/1 48/2/1
f 49/3/1 41/3/1 40/3/1
f 49/3/1 42/3/1 41/3/1
f 50/1/1 36/1/1 43/1/1
f 50/3/1 43/3/1 49/3/1
f 51/3/1 44/3/1 36/3/1
f 51/1/1 36/1/1 50/1/1
f 52/2/1 3/2/1 1/2/1
f 52/3/1 47/3/1 3/3/1
f 53/2/1 48/2/1 47/2/1
f 53/3/1 47/3/1 52/3/1
f 54/3/1 50/3/1 49/3/1
f 54/2/1 48/2/1 53/2/1
f 54/3/1 49/3/1 48/3/1
f 54/3/1 51/3/1 50/3/1
f 55/3/1 44/3/1 51/3/1
f 55/3/1 51/3/1 54/3/1
f 55/2/1 45/2/1 44/2/1
f 56/4/1 46/4/1 45/4/1
f 56/2/1 45/2/1 55/2/1
f 57/2/1 38/2/1 46/2/1
f 57/4/1 46/4/1 56/4/1
f 58/2/1 38/2/1 57/2/1
f 59/2/1 54/2/1 53/2/1
f 59/2/1 53/2/1 52/2/1
f 59/2/1 57/2/1 56/2/1
f 59/2/1 55/2/1 54/2/1
f 59/2/1 56/2/1 55/2/1
f 59/2/1 52/2/1 1/2/1
f 60/2/1 57/2/1 59/2/1
f 61/2/1 57/2/1 60/2/1
f 62/2/1 59/2/1 1/2/1
f 62/3/1 60/3/1 59/3/1
f 63/4/1 61/4/1 60/4/1
f 63/3/1 60/3/1 62/3/1
f 64/4/1 61/4/1 63/4/1
f 65/2/1 62/2/1 1/2/1
f 65/2/1 63/2/1 62/2/1
f 65/2/1 64/2/1 63/2/1
f 66/2/1 64/2/1 65/2/1
f 67/2/2 68/2/2 69/2/2
f 69/2/2 68/2/2 70/2/2
f 69/3/2 70/3/2 71/3/2
f 70/2/2 68/2/2 72/2/2
f 71/3/2 70/3/2 72/3/2
f 72/2/2 68/2/2 73/2/2
f 69/3/2 71/3/2 74/3/2
f 71/2/2 72/2/2 75/2/2
f 74/3/2 71/3/2 75/3/2
f 72/3/2 73/3/2 76/3/2
f 75/2/2 72/2/2 76/2/2
f 76/3/2 73/3/2 77/3/2
f 69/3/2 74/3/2 79/3/2
f 74/2/2 75/2/2 80/2/2
f 79/3/2 74/3/2 80/3/2
f 76/3/2 77/3/2 81/3/2
f 80/2/2 75/2/2 81/2/2
f 77/3/2 78/3/2 81/3/2
f 75/3/2 76/3/2 81/3/2
f 69/3/2 79/3/2 82/3/2
f 79/2/2 80/2/2 83/2/2
f 82/3/2 79/3/2 83/3/2
f 80/3/2 81/3/2 84/3/2
f 83/2/2 80/2/2 84/2/2
f 81/3/2 78/3/2 85/3/2
f 84/3/2 81/3/2 85/3/2
f 69/3/2 82/3/2 86/3/2
f 82/2/2 83/2/2 87/2/2
f 86/3/2 82/3/2 87/3/2
f 83/3/2 84/3/2 88/3/2
f 87/2/2 83/2/2 88/2/2
f 84/2/2 85/2/2 89/2/2
f 88/3/2 84/3/2 89/3/2
f 89/2/2 85/2/2 90/2/2
f 69/3/2 86/3/2 92/3/2
f 86/2/2 87/2/2 93/2/2
f 92/3/2 86/3/2 93/3/2
f 89/3/2 90/3/2 94/3/2
f 93/2/2 87/2/2 94/2/2
f 87/3/2 88/3/2 94/3/2
f 88/3/2 89/3/2 94/3/2
f 90/2/2 91/2/2 95/2/2
f 94/3/2 90/3/2 95/3/2
f 95/2/2 91/2/2 96/2/2
f 69/3/2 92/3/2 98/3/2
f 92/2/2 93/2/2 99/2/2
f 98/3/2 92/3/2 99/3/2
f 93/3/2 94/3/2 100/3/2
f 99/2/2 93/2/2 100/2/2
f 94/3/2 95/3/2 100/3/2
f 95/3/2 96/3/2 100/3/2
f 100/3/2 96/3/2 101/3/2
f 101/3/2 96/3/2 102/3/2
f 96/2/2 97/2/2 103/2/2
f 69/3/2 98/3/2 105/3/2
f 98/2/2 99/2/2 106/2/2
f 105/3/2 98/3/2 106/3/2
f 99/3/2 100/3/2 107/3/2
f 106/2/2 99/2/2 107/2/2
f 100/3/2 101/3/2 107/3/2
f 101/1/2 102/1/2 108/1/2
f 107/3/2 101/3/2 108/3/2
f 108/1/2 102/1/2 109/1/2
f 102/3/2 96/3/2 110/3/2
f 103/2/2 104/2/2 111/2/2
f 110/3/2 96/3/2 111/3/2
f 96/2/2 103/2/2 111/2/2
f 111/2/2 104/2/2 112/2/2
f 69/3/2 105/3/2 113/3/2
f 105/2/2 106/2/2 114/2/2
f 113/3/2 105/3/2 114/3/2
f 108/3/2 109/3/2 115/3/2
f 114/2/2 106/2/2 115/2/2
f 106/3/2 107/3/2 115/3/2
f 107/3/2 108/3/2 115/3/2
f 109/1/2 102/1/2 116/1/2
f 115/3/2 109/3/2 116/3/2
f 102/3/2 110/3/2 117/3/2
f 116/1/2 102/1/2 117/1/2
f 67/2/2 69/2/2 118/2/2
f 69/3/2 113/3/2 118/3/2
f 113/2/2 114/2/2 119/2/2
f 118/3/2 113/3/2 119/3/2
f 115/3/2 116/3/2 120/3/2
f 119/2/2 114/2/2 120/2/2
f 114/3/2 115/3/2 120/3/2
f 116/3/2 117/3/2 120/3/2
f 117/3/2 110/3/2 121/3/2
f 120/3/2 117/3/2 121/3/2
f 110/2/2 111/2/2 121/2/2
f 111/4/2 112/4/2 122/4/2
f 121/2/2 111/2/2 122/2/2
f 112/2/2 104/2/2 123/2/2
f 122/4/2 112/4/2 123/4/2
f 123/2/2 104/2/2 124/2/2
f 119/2/2 120/2/2 125/2/2
f 118/2/2 119/2/2 125/2/2
f 122/2/2 123/2/2 125/2/2
f 120/2/2 121/2/2 125/2/2
f 121/2/2 122/2/2 125/2/2
f 67/2/2 118/2/2 125/2/2
f 125/2/2 123/2/2 126/2/2
f 126/2/2 123/2/2 127/2/2
f 67/2/2 125/2/2 128/2/2
f 125/3/2 126/3/2 128/3/2
f 126/4/2 127/4/2 129/4/2
f 128/3/2 126/3/2 129/3/2
f 129/4/2 127/4/2 130/4/2
f 67/2/2 128/2/2 131/2/2
f 128/2/2 129/2/2 131/2/2
f 129/2/2 130/2/2 131/2/2
f 131/2/2 130/2/2 132/2/2
f 135/2/3 134/2/3 133/2/3
f 136/2/3 134/2/3 135/2/3
f 137/2/4 138/2/4 140/2/4
f 138/3/4 139/3/4 141/3/4
f 140/2/4 138/2/4 141/2/4
f 141/3/4 139/3/4 142/3/4
f 143/3/4 144/3/4 146/3/4
f 144/2/4 145/2/4 147/2/4
f 146/3/4 144/3/4 147/3/4
f 147/2/4 145/2/4 148/2/4
f 149/2/4 150/2/4 151/2/4
f 151/2/4 150/2/4 152/2/4
f 153/2/4 154/2/4 155/2/4
f 155/2/4 154/2/4 156/2/4
f 157/2/4 158/2/4 161/2/4
f 158/4/4 159/4/4 162/4/4
f 161/2/4 158/2/4 162/2/4
f 159/2/4 160/2/4 163/2/4
f 162/4/4 159/4/4 163/4/4
f 163/2/4 160/2/4 164/2/4
f 165/2/4 166/2/4 167/2/4
f 167/2/4 166/2/4 168/2/4
f 171/2/5 170/2/5 169/2/5
f 172/2/5 170/2/5 171/2/5
f 175/3/5 174/3/5 173/3/5
f 176/3/5 174/3/5 175/3/5
f 179/2/5 178/2/5 177/2/5
f 180/2/5 178/2/5 179/2/5
f 183/2/5 182/2/5 181/2/5
f 184/2/5 182/2/5 183/2/5
f 187/2/5 186/2/5 185/2/5
f 188/2/5 186/2/5 187/2/5
f 189/2/6 190/2/6 191/2/6
f 191/2/6 190/2/6 192/2/6
f 193/2/6 194/2/6 195/2/6
f 195/2/6 194/2/6 196/2/6
