# MagicaVoxel @ Ephtracy

# group
o 

# material
mtllib pistol.mtl
usemtl palette

# normals
vn -1 0 0
vn 1 0 0
vn 0 0 1
vn 0 0 -1
vn 0 -1 0
vn 0 1 0

# texcoords
vt 0.982422 0.5
vt 0.994141 0.5

# verts
v 2 2 -2
v 2 2 -2.5
v 2 2.1 -2
v 2 2.1 -2.5
v 2.1 2 -2
v 2.1 2 -2.1
v 2.1 2 -2.4
v 2.1 2 -2.5
v 2.1 2.1 -2
v 2.1 2.1 -2.1
v 2.1 2.1 -2.4
v 2.1 2.1 -2.5
v 2.3 2 -2.1
v 2.3 2 -2.2
v 2.3 2 -2.3
v 2.3 2 -2.4
v 2.3 2.1 -2.1
v 2.3 2.1 -2.2
v 2.3 2.1 -2.3
v 2.3 2.1 -2.4
v 2.4 2 -2.2
v 2.4 2 -2.3
v 2.4 2.1 -2.2
v 2.4 2.1 -2.3
v 2 2 -2
v 2 2.1 -2
v 2.1 2 -2
v 2.1 2.1 -2
v 2.1 2 -2.1
v 2.1 2.1 -2.1
v 2.2 2 -2.1
v 2.2 2.1 -2.1
v 2.3 2 -2.1
v 2.3 2.1 -2.1
v 2.3 2 -2.2
v 2.3 2.1 -2.2
v 2.4 2 -2.2
v 2.4 2.1 -2.2
v 2.3 2 -2.3
v 2.3 2.1 -2.3
v 2.4 2 -2.3
v 2.4 2.1 -2.3
v 2.1 2 -2.4
v 2.1 2.1 -2.4
v 2.2 2 -2.4
v 2.2 2.1 -2.4
v 2.3 2 -2.4
v 2.3 2.1 -2.4
v 2 2 -2.5
v 2 2.1 -2.5
v 2.1 2 -2.5
v 2.1 2.1 -2.5
v 2 2 -2
v 2.1 2 -2
v 2.1 2 -2.1
v 2.2 2 -2.1
v 2.3 2 -2.1
v 2.1 2 -2.2
v 2.2 2 -2.2
v 2.3 2 -2.2
v 2.4 2 -2.2
v 2.1 2 -2.3
v 2.2 2 -2.3
v 2.3 2 -2.3
v 2.4 2 -2.3
v 2.1 2 -2.4
v 2.2 2 -2.4
v 2.3 2 -2.4
v 2 2 -2.5
v 2.1 2 -2.5
v 2 2.1 -2
v 2.1 2.1 -2
v 2.1 2.1 -2.1
v 2.2 2.1 -2.1
v 2.3 2.1 -2.1
v 2.1 2.1 -2.2
v 2.2 2.1 -2.2
v 2.3 2.1 -2.2
v 2.4 2.1 -2.2
v 2.1 2.1 -2.3
v 2.2 2.1 -2.3
v 2.3 2.1 -2.3
v 2.4 2.1 -2.3
v 2.1 2.1 -2.4
v 2.2 2.1 -2.4
v 2.3 2.1 -2.4
v 2 2.1 -2.5
v 2.1 2.1 -2.5

# faces
f 3/1/1 2/1/1 1/1/1
f 4/1/1 2/1/1 3/1/1
f 5/1/2 6/1/2 9/1/2
f 9/1/2 6/1/2 10/1/2
f 7/1/2 8/1/2 11/1/2
f 11/1/2 8/1/2 12/1/2
f 13/1/2 14/1/2 17/1/2
f 17/1/2 14/1/2 18/1/2
f 15/1/2 16/1/2 19/1/2
f 19/1/2 16/1/2 20/1/2
f 21/2/2 22/2/2 23/2/2
f 23/2/2 22/2/2 24/2/2
f 27/1/3 26/1/3 25/1/3
f 28/1/3 26/1/3 27/1/3
f 31/2/3 30/2/3 29/2/3
f 32/2/3 30/2/3 31/2/3
f 33/1/3 32/1/3 31/1/3
f 34/1/3 32/1/3 33/1/3
f 37/2/3 36/2/3 35/2/3
f 38/2/3 36/2/3 37/2/3
f 39/2/4 40/2/4 41/2/4
f 41/2/4 40/2/4 42/2/4
f 43/2/4 44/2/4 45/2/4
f 45/2/4 44/2/4 46/2/4
f 45/1/4 46/1/4 47/1/4
f 47/1/4 46/1/4 48/1/4
f 49/1/4 50/1/4 51/1/4
f 51/1/4 50/1/4 52/1/4
f 55/1/5 54/1/5 53/1/5
f 58/1/5 55/1/5 53/1/5
f 58/2/5 56/2/5 55/2/5
f 59/1/5 57/1/5 56/1/5
f 59/2/5 56/2/5 58/2/5
f 60/1/5 57/1/5 59/1/5
f 62/1/5 58/1/5 53/1/5
f 62/1/5 59/1/5 58/1/5
f 62/1/5 60/1/5 59/1/5
f 63/1/5 60/1/5 62/1/5
f 64/2/5 61/2/5 60/2/5
f 64/1/5 60/1/5 63/1/5
f 65/2/5 61/2/5 64/2/5
f 66/2/5 63/2/5 62/2/5
f 66/1/5 62/1/5 53/1/5
f 67/1/5 64/1/5 63/1/5
f 67/2/5 63/2/5 66/2/5
f 68/1/5 64/1/5 67/1/5
f 69/1/5 66/1/5 53/1/5
f 70/1/5 66/1/5 69/1/5
f 71/1/6 72/1/6 73/1/6
f 71/1/6 73/1/6 76/1/6
f 73/2/6 74/2/6 76/2/6
f 74/1/6 75/1/6 77/1/6
f 76/2/6 74/2/6 77/2/6
f 77/1/6 75/1/6 78/1/6
f 71/1/6 76/1/6 80/1/6
f 76/1/6 77/1/6 80/1/6
f 77/1/6 78/1/6 80/1/6
f 80/1/6 78/1/6 81/1/6
f 78/2/6 79/2/6 82/2/6
f 81/1/6 78/1/6 82/1/6
f 82/2/6 79/2/6 83/2/6
f 80/2/6 81/2/6 84/2/6
f 71/1/6 80/1/6 84/1/6
f 81/1/6 82/1/6 85/1/6
f 84/2/6 81/2/6 85/2/6
f 85/1/6 82/1/6 86/1/6
f 71/1/6 84/1/6 87/1/6
f 87/1/6 84/1/6 88/1/6
