# MagicaVoxel @ Ephtracy

# group
o 

# material
mtllib pistol.mtl
usemtl palette

# normals
vn -1 0 0
vn 1 0 0
vn 0 0 1
vn 0 0 -1
vn 0 -1 0
vn 0 1 0

# texcoords
vt 0.982422 0.5
vt 0.994141 0.5

# verts
v 2 4 -1.9
v 2 4 -2
v 2 4.5 -1.9
v 2 4.5 -2
v 2.1 4 -1.9
v 2.1 4 -2
v 2.1 4.1 -1.9
v 2.1 4.1 -2
v 2.1 4.4 -1.9
v 2.1 4.4 -2
v 2.1 4.5 -1.9
v 2.1 4.5 -2
v 2.3 4.1 -1.9
v 2.3 4.1 -2
v 2.3 4.2 -1.9
v 2.3 4.2 -2
v 2.3 4.3 -1.9
v 2.3 4.3 -2
v 2.3 4.4 -1.9
v 2.3 4.4 -2
v 2.4 4.2 -1.9
v 2.4 4.2 -2
v 2.4 4.3 -1.9
v 2.4 4.3 -2
v 2 4 -1.9
v 2 4.5 -1.9
v 2.1 4 -1.9
v 2.1 4.1 -1.9
v 2.1 4.2 -1.9
v 2.1 4.3 -1.9
v 2.1 4.4 -1.9
v 2.1 4.5 -1.9
v 2.2 4.1 -1.9
v 2.2 4.2 -1.9
v 2.2 4.3 -1.9
v 2.2 4.4 -1.9
v 2.3 4.1 -1.9
v 2.3 4.2 -1.9
v 2.3 4.3 -1.9
v 2.3 4.4 -1.9
v 2.4 4.2 -1.9
v 2.4 4.3 -1.9
v 2 4 -2
v 2 4.5 -2
v 2.1 4 -2
v 2.1 4.1 -2
v 2.1 4.2 -2
v 2.1 4.3 -2
v 2.1 4.4 -2
v 2.1 4.5 -2
v 2.2 4.1 -2
v 2.2 4.2 -2
v 2.2 4.3 -2
v 2.2 4.4 -2
v 2.3 4.1 -2
v 2.3 4.2 -2
v 2.3 4.3 -2
v 2.3 4.4 -2
v 2.4 4.2 -2
v 2.4 4.3 -2
v 2 4 -1.9
v 2.1 4 -1.9
v 2 4 -2
v 2.1 4 -2
v 2.1 4.1 -1.9
v 2.2 4.1 -1.9
v 2.3 4.1 -1.9
v 2.1 4.1 -2
v 2.2 4.1 -2
v 2.3 4.1 -2
v 2.3 4.2 -1.9
v 2.4 4.2 -1.9
v 2.3 4.2 -2
v 2.4 4.2 -2
v 2.3 4.3 -1.9
v 2.4 4.3 -1.9
v 2.3 4.3 -2
v 2.4 4.3 -2
v 2.1 4.4 -1.9
v 2.2 4.4 -1.9
v 2.3 4.4 -1.9
v 2.1 4.4 -2
v 2.2 4.4 -2
v 2.3 4.4 -2
v 2 4.5 -1.9
v 2.1 4.5 -1.9
v 2 4.5 -2
v 2.1 4.5 -2

# faces
f 3/1/1 2/1/1 1/1/1
f 4/1/1 2/1/1 3/1/1
f 5/1/2 6/1/2 7/1/2
f 7/1/2 6/1/2 8/1/2
f 9/1/2 10/1/2 11/1/2
f 11/1/2 10/1/2 12/1/2
f 13/1/2 14/1/2 15/1/2
f 15/1/2 14/1/2 16/1/2
f 17/1/2 18/1/2 19/1/2
f 19/1/2 18/1/2 20/1/2
f 21/2/2 22/2/2 23/2/2
f 23/2/2 22/2/2 24/2/2
f 27/1/3 26/1/3 25/1/3
f 28/1/3 26/1/3 27/1/3
f 29/1/3 26/1/3 28/1/3
f 30/1/3 26/1/3 29/1/3
f 31/1/3 26/1/3 30/1/3
f 32/1/3 26/1/3 31/1/3
f 33/2/3 29/2/3 28/2/3
f 34/1/3 30/1/3 29/1/3
f 34/2/3 29/2/3 33/2/3
f 35/2/3 31/2/3 30/2/3
f 35/1/3 30/1/3 34/1/3
f 36/2/3 31/2/3 35/2/3
f 37/1/3 34/1/3 33/1/3
f 37/1/3 35/1/3 34/1/3
f 37/1/3 36/1/3 35/1/3
f 38/1/3 36/1/3 37/1/3
f 39/1/3 36/1/3 38/1/3
f 40/1/3 36/1/3 39/1/3
f 41/2/3 39/2/3 38/2/3
f 42/2/3 39/2/3 41/2/3
f 43/1/4 44/1/4 45/1/4
f 45/1/4 44/1/4 46/1/4
f 46/1/4 44/1/4 47/1/4
f 47/1/4 44/1/4 48/1/4
f 48/1/4 44/1/4 49/1/4
f 49/1/4 44/1/4 50/1/4
f 46/2/4 47/2/4 51/2/4
f 47/1/4 48/1/4 52/1/4
f 51/2/4 47/2/4 52/2/4
f 48/2/4 49/2/4 53/2/4
f 52/1/4 48/1/4 53/1/4
f 53/2/4 49/2/4 54/2/4
f 51/1/4 52/1/4 55/1/4
f 52/1/4 53/1/4 55/1/4
f 53/1/4 54/1/4 55/1/4
f 55/1/4 54/1/4 56/1/4
f 56/1/4 54/1/4 57/1/4
f 57/1/4 54/1/4 58/1/4
f 56/2/4 57/2/4 59/2/4
f 59/2/4 57/2/4 60/2/4
f 63/1/5 62/1/5 61/1/5
f 64/1/5 62/1/5 63/1/5
f 68/2/5 66/2/5 65/2/5
f 69/1/5 67/1/5 66/1/5
f 69/2/5 66/2/5 68/2/5
f 70/1/5 67/1/5 69/1/5
f 73/2/5 72/2/5 71/2/5
f 74/2/5 72/2/5 73/2/5
f 75/2/6 76/2/6 77/2/6
f 77/2/6 76/2/6 78/2/6
f 79/2/6 80/2/6 82/2/6
f 80/1/6 81/1/6 83/1/6
f 82/2/6 80/2/6 83/2/6
f 83/1/6 81/1/6 84/1/6
f 85/1/6 86/1/6 87/1/6
f 87/1/6 86/1/6 88/1/6
