# MagicaVoxel @ Ephtracy

# group
o 

# material
mtllib shotgun.mtl
usemtl palette

# normals
vn -1 0 0
vn 1 0 0
vn 0 0 1
vn 0 0 -1
vn 0 -1 0
vn 0 1 0

# texcoords
vt 0.373047 0.5
vt 0.978516 0.5
vt 0.986328 0.5
vt 0.994141 0.5

# verts
v 1.4 3.7 -2
v 1.4 3.7 -2.1
v 1.4 3.9 -2
v 1.4 3.9 -2.1
v 1.4 4.1 -2
v 1.4 4.1 -2.1
v 1.5 3.6 -2
v 1.5 3.6 -2.1
v 1.5 3.7 -2
v 1.5 3.7 -2.1
v 1.5 4.1 -2
v 1.5 4.1 -2.1
v 1.5 4.2 -2
v 1.5 4.2 -2.1
v 1.6 3.5 -2
v 1.6 3.5 -2.1
v 1.6 3.6 -2
v 1.6 3.6 -2.1
v 1.6 4.2 -2
v 1.6 4.2 -2.1
v 1.6 4.3 -2
v 1.6 4.3 -2.1
v 2 3.5 -2
v 2 3.5 -2.1
v 2 3.6 -2
v 2 3.6 -2.1
v 2.5 3.6 -2
v 2.5 3.6 -2.1
v 2.5 3.7 -2
v 2.5 3.7 -2.1
v 2.6 3.7 -2
v 2.6 3.7 -2.1
v 2.6 3.8 -2
v 2.6 3.8 -2.1
v 2.6 4.2 -2
v 2.6 4.2 -2.1
v 2.6 4.3 -2
v 2.6 4.3 -2.1
v 2.7 3.8 -2
v 2.7 3.8 -2.1
v 2.7 3.9 -2
v 2.7 3.9 -2.1
v 2.7 4.1 -2
v 2.7 4.1 -2.1
v 2.7 4.2 -2
v 2.7 4.2 -2.1
v 2.8 3.9 -2
v 2.8 3.9 -2.1
v 2.8 4.1 -2
v 2.8 4.1 -2.1
v 1.4 3.7 -2
v 1.4 3.9 -2
v 1.4 4.1 -2
v 1.5 3.6 -2
v 1.5 3.7 -2
v 1.5 3.8 -2
v 1.5 3.9 -2
v 1.5 4 -2
v 1.5 4.1 -2
v 1.5 4.2 -2
v 1.6 3.5 -2
v 1.6 3.6 -2
v 1.6 3.8 -2
v 1.6 3.9 -2
v 1.6 4.1 -2
v 1.6 4.2 -2
v 1.6 4.3 -2
v 2 3.5 -2
v 2 3.6 -2
v 2.3 4 -2
v 2.3 4.1 -2
v 2.4 3.8 -2
v 2.4 3.9 -2
v 2.4 4.1 -2
v 2.4 4.2 -2
v 2.5 3.6 -2
v 2.5 3.7 -2
v 2.5 3.8 -2
v 2.5 3.9 -2
v 2.5 4.1 -2
v 2.5 4.2 -2
v 2.6 3.7 -2
v 2.6 3.8 -2
v 2.6 3.9 -2
v 2.6 4.1 -2
v 2.6 4.2 -2
v 2.6 4.3 -2
v 2.7 3.8 -2
v 2.7 3.9 -2
v 2.7 4.1 -2
v 2.7 4.2 -2
v 2.8 3.9 -2
v 2.8 4.1 -2
v 1.4 3.7 -2.1
v 1.4 3.9 -2.1
v 1.4 4.1 -2.1
v 1.5 3.6 -2.1
v 1.5 3.7 -2.1
v 1.5 3.8 -2.1
v 1.5 3.9 -2.1
v 1.5 4 -2.1
v 1.5 4.1 -2.1
v 1.5 4.2 -2.1
v 1.6 3.5 -2.1
v 1.6 3.6 -2.1
v 1.6 3.8 -2.1
v 1.6 3.9 -2.1
v 1.6 4.1 -2.1
v 1.6 4.2 -2.1
v 1.6 4.3 -2.1
v 2 3.5 -2.1
v 2 3.6 -2.1
v 2.3 4 -2.1
v 2.3 4.1 -2.1
v 2.4 3.8 -2.1
v 2.4 3.9 -2.1
v 2.4 4.1 -2.1
v 2.4 4.2 -2.1
v 2.5 3.6 -2.1
v 2.5 3.7 -2.1
v 2.5 3.8 -2.1
v 2.5 3.9 -2.1
v 2.5 4.1 -2.1
v 2.5 4.2 -2.1
v 2.6 3.7 -2.1
v 2.6 3.8 -2.1
v 2.6 3.9 -2.1
v 2.6 4.1 -2.1
v 2.6 4.2 -2.1
v 2.6 4.3 -2.1
v 2.7 3.8 -2.1
v 2.7 3.9 -2.1
v 2.7 4.1 -2.1
v 2.7 4.2 -2.1
v 2.8 3.9 -2.1
v 2.8 4.1 -2.1
v 1.6 3.5 -2
v 2 3.5 -2
v 1.6 3.5 -2.1
v 2 3.5 -2.1
v 1.5 3.6 -2
v 1.6 3.6 -2
v 2 3.6 -2
v 2.5 3.6 -2
v 1.5 3.6 -2.1
v 1.6 3.6 -2.1
v 2 3.6 -2.1
v 2.5 3.6 -2.1
v 1.4 3.7 -2
v 1.5 3.7 -2
v 2.5 3.7 -2
v 2.6 3.7 -2
v 1.4 3.7 -2.1
v 1.5 3.7 -2.1
v 2.5 3.7 -2.1
v 2.6 3.7 -2.1
v 2.6 3.8 -2
v 2.7 3.8 -2
v 2.6 3.8 -2.1
v 2.7 3.8 -2.1
v 2.7 3.9 -2
v 2.8 3.9 -2
v 2.7 3.9 -2.1
v 2.8 3.9 -2.1
v 1.4 4.1 -2
v 1.5 4.1 -2
v 2.7 4.1 -2
v 2.8 4.1 -2
v 1.4 4.1 -2.1
v 1.5 4.1 -2.1
v 2.7 4.1 -2.1
v 2.8 4.1 -2.1
v 1.5 4.2 -2
v 1.6 4.2 -2
v 2.6 4.2 -2
v 2.7 4.2 -2
v 1.5 4.2 -2.1
v 1.6 4.2 -2.1
v 2.6 4.2 -2.1
v 2.7 4.2 -2.1
v 1.6 4.3 -2
v 2.6 4.3 -2
v 1.6 4.3 -2.1
v 2.6 4.3 -2.1

# faces
f 3/1/1 2/1/1 1/1/1
f 4/1/1 2/1/1 3/1/1
f 5/2/1 4/2/1 3/2/1
f 6/2/1 4/2/1 5/2/1
f 9/1/1 8/1/1 7/1/1
f 10/1/1 8/1/1 9/1/1
f 13/2/1 12/2/1 11/2/1
f 14/2/1 12/2/1 13/2/1
f 17/1/1 16/1/1 15/1/1
f 18/1/1 16/1/1 17/1/1
f 21/2/1 20/2/1 19/2/1
f 22/2/1 20/2/1 21/2/1
f 23/1/2 24/1/2 25/1/2
f 25/1/2 24/1/2 26/1/2
f 27/1/2 28/1/2 29/1/2
f 29/1/2 28/1/2 30/1/2
f 31/1/2 32/1/2 33/1/2
f 33/1/2 32/1/2 34/1/2
f 35/2/2 36/2/2 37/2/2
f 37/2/2 36/2/2 38/2/2
f 39/2/2 40/2/2 41/2/2
f 41/2/2 40/2/2 42/2/2
f 43/2/2 44/2/2 45/2/2
f 45/2/2 44/2/2 46/2/2
f 47/2/2 48/2/2 49/2/2
f 49/2/2 48/2/2 50/2/2
f 55/1/3 52/1/3 51/1/3
f 56/1/3 52/1/3 55/1/3
f 57/2/3 53/2/3 52/2/3
f 57/1/3 52/1/3 56/1/3
f 58/2/3 53/2/3 57/2/3
f 59/2/3 53/2/3 58/2/3
f 62/1/3 56/1/3 55/1/3
f 62/1/3 55/1/3 54/1/3
f 63/2/3 57/2/3 56/2/3
f 63/2/3 58/2/3 57/2/3
f 63/1/3 56/1/3 62/1/3
f 64/2/3 58/2/3 63/2/3
f 65/2/3 60/2/3 59/2/3
f 65/3/3 59/3/3 58/3/3
f 66/2/3 60/2/3 65/2/3
f 68/1/3 62/1/3 61/1/3
f 68/1/3 63/1/3 62/1/3
f 69/1/3 63/1/3 68/1/3
f 70/2/3 58/2/3 64/2/3
f 70/3/3 66/3/3 65/3/3
f 70/3/3 65/3/3 58/3/3
f 71/3/3 66/3/3 70/3/3
f 72/1/3 63/1/3 69/1/3
f 72/3/3 64/3/3 63/3/3
f 73/2/3 71/2/3 70/2/3
f 73/3/3 64/3/3 72/3/3
f 73/2/3 70/2/3 64/2/3
f 74/3/3 66/3/3 71/3/3
f 74/2/3 71/2/3 73/2/3
f 75/2/3 67/2/3 66/2/3
f 75/3/3 66/3/3 74/3/3
f 76/1/3 72/1/3 69/1/3
f 77/1/3 72/1/3 76/1/3
f 78/2/3 73/2/3 72/2/3
f 78/1/3 72/1/3 77/1/3
f 79/4/3 74/4/3 73/4/3
f 79/2/3 73/2/3 78/2/3
f 80/2/3 75/2/3 74/2/3
f 80/4/3 74/4/3 79/4/3
f 81/2/3 67/2/3 75/2/3
f 81/2/3 75/2/3 80/2/3
f 82/1/3 78/1/3 77/1/3
f 83/4/3 80/4/3 79/4/3
f 83/1/3 78/1/3 82/1/3
f 83/4/3 81/4/3 80/4/3
f 83/4/3 79/4/3 78/4/3
f 84/4/3 81/4/3 83/4/3
f 85/4/3 81/4/3 84/4/3
f 86/2/3 67/2/3 81/2/3
f 86/4/3 81/4/3 85/4/3
f 87/2/3 67/2/3 86/2/3
f 88/2/3 84/2/3 83/2/3
f 89/4/3 85/4/3 84/4/3
f 89/2/3 84/2/3 88/2/3
f 90/2/3 86/2/3 85/2/3
f 90/4/3 85/4/3 89/4/3
f 91/2/3 86/2/3 90/2/3
f 92/2/3 90/2/3 89/2/3
f 93/2/3 90/2/3 92/2/3
f 94/1/4 95/1/4 98/1/4
f 98/1/4 95/1/4 99/1/4
f 95/2/4 96/2/4 100/2/4
f 99/1/4 95/1/4 100/1/4
f 100/2/4 96/2/4 101/2/4
f 101/2/4 96/2/4 102/2/4
f 98/1/4 99/1/4 105/1/4
f 97/1/4 98/1/4 105/1/4
f 99/2/4 100/2/4 106/2/4
f 100/2/4 101/2/4 106/2/4
f 105/1/4 99/1/4 106/1/4
f 106/2/4 101/2/4 107/2/4
f 102/2/4 103/2/4 108/2/4
f 101/3/4 102/3/4 108/3/4
f 108/2/4 103/2/4 109/2/4
f 104/1/4 105/1/4 111/1/4
f 105/1/4 106/1/4 111/1/4
f 111/1/4 106/1/4 112/1/4
f 107/2/4 101/2/4 113/2/4
f 108/3/4 109/3/4 113/3/4
f 101/3/4 108/3/4 113/3/4
f 113/3/4 109/3/4 114/3/4
f 112/1/4 106/1/4 115/1/4
f 106/3/4 107/3/4 115/3/4
f 113/2/4 114/2/4 116/2/4
f 115/3/4 107/3/4 116/3/4
f 107/2/4 113/2/4 116/2/4
f 114/3/4 109/3/4 117/3/4
f 116/2/4 114/2/4 117/2/4
f 109/2/4 110/2/4 118/2/4
f 117/3/4 109/3/4 118/3/4
f 112/1/4 115/1/4 119/1/4
f 119/1/4 115/1/4 120/1/4
f 115/2/4 116/2/4 121/2/4
f 120/1/4 115/1/4 121/1/4
f 116/4/4 117/4/4 122/4/4
f 121/2/4 116/2/4 122/2/4
f 117/2/4 118/2/4 123/2/4
f 122/4/4 117/4/4 123/4/4
f 118/2/4 110/2/4 124/2/4
f 123/2/4 118/2/4 124/2/4
f 120/1/4 121/1/4 125/1/4
f 122/4/4 123/4/4 126/4/4
f 125/1/4 121/1/4 126/1/4
f 123/4/4 124/4/4 126/4/4
f 121/4/4 122/4/4 126/4/4
f 126/4/4 124/4/4 127/4/4
f 127/4/4 124/4/4 128/4/4
f 124/2/4 110/2/4 129/2/4
f 128/4/4 124/4/4 129/4/4
f 129/2/4 110/2/4 130/2/4
f 126/2/4 127/2/4 131/2/4
f 127/4/4 128/4/4 132/4/4
f 131/2/4 127/2/4 132/2/4
f 128/2/4 129/2/4 133/2/4
f 132/4/4 128/4/4 133/4/4
f 133/2/4 129/2/4 134/2/4
f 132/2/4 133/2/4 135/2/4
f 135/2/4 133/2/4 136/2/4
f 139/1/5 138/1/5 137/1/5
f 140/1/5 138/1/5 139/1/5
f 145/1/5 142/1/5 141/1/5
f 146/1/5 142/1/5 145/1/5
f 147/1/5 144/1/5 143/1/5
f 148/1/5 144/1/5 147/1/5
f 153/1/5 150/1/5 149/1/5
f 154/1/5 150/1/5 153/1/5
f 155/1/5 152/1/5 151/1/5
f 156/1/5 152/1/5 155/1/5
f 159/2/5 158/2/5 157/2/5
f 160/2/5 158/2/5 159/2/5
f 163/2/5 162/2/5 161/2/5
f 164/2/5 162/2/5 163/2/5
f 165/2/6 166/2/6 169/2/6
f 169/2/6 166/2/6 170/2/6
f 167/2/6 168/2/6 171/2/6
f 171/2/6 168/2/6 172/2/6
f 173/2/6 174/2/6 177/2/6
f 177/2/6 174/2/6 178/2/6
f 175/2/6 176/2/6 179/2/6
f 179/2/6 176/2/6 180/2/6
f 181/2/6 182/2/6 183/2/6
f 183/2/6 182/2/6 184/2/6
