# MagicaVoxel @ Ephtracy

# group
o 

# material
mtllib lamp post obj.mtl
usemtl palette

# normals
vn -1 0 0
vn 1 0 0
vn 0 0 1
vn 0 0 -1
vn 0 -1 0
vn 0 1 0

# texcoords
vt 0.822266 0.5
vt 0.990234 0.5

# verts
v 4.8 2 -5.8
v 4.8 2 -7.2
v 4.8 2.2 -5.8
v 4.8 2.2 -7.2
v 4.8 13.8 -5.8
v 4.8 13.8 -7.2
v 4.8 13.9 -5.8
v 4.8 13.9 -7.2
v 4.9 2.2 -5.9
v 4.9 2.2 -7.1
v 4.9 2.3 -5.9
v 4.9 2.3 -7.1
v 4.9 12.3 -5.9
v 4.9 12.3 -7.1
v 4.9 12.4 -5.9
v 4.9 12.4 -6
v 4.9 12.4 -7
v 4.9 12.4 -7.1
v 4.9 13.8 -5.9
v 4.9 13.8 -6
v 4.9 13.8 -7
v 4.9 13.8 -7.1
v 4.9 13.9 -5.9
v 4.9 13.9 -7.1
v 4.9 14 -5.9
v 4.9 14 -7.1
v 5 2.3 -6
v 5 2.3 -7
v 5 2.4 -6
v 5 2.4 -7
v 5 14 -6
v 5 14 -7
v 5 14.1 -6
v 5 14.1 -7
v 5.1 2.4 -6.1
v 5.1 2.4 -6.9
v 5.1 2.5 -6.1
v 5.1 2.5 -6.9
v 5.1 12.5 -6.1
v 5.1 12.5 -6.2
v 5.1 12.5 -6.8
v 5.1 12.5 -6.9
v 5.1 12.6 -6.2
v 5.1 12.6 -6.8
v 5.1 13.6 -6.2
v 5.1 13.6 -6.8
v 5.1 13.7 -6.1
v 5.1 13.7 -6.2
v 5.1 13.7 -6.8
v 5.1 13.7 -6.9
v 5.1 14.1 -6.1
v 5.1 14.1 -6.9
v 5.1 14.2 -6.1
v 5.1 14.2 -6.9
v 5.2 2.5 -6.2
v 5.2 2.5 -6.5
v 5.2 2.5 -6.6
v 5.2 2.5 -6.8
v 5.2 5 -6.2
v 5.2 5 -6.5
v 5.2 5 -6.6
v 5.2 5 -6.8
v 5.2 5.1 -6.2
v 5.2 5.1 -6.5
v 5.2 5.1 -6.6
v 5.2 5.1 -6.8
v 5.2 8 -6.2
v 5.2 8 -6.5
v 5.2 8 -6.6
v 5.2 8 -6.8
v 5.2 8.1 -6.2
v 5.2 8.1 -6.5
v 5.2 8.1 -6.6
v 5.2 8.1 -6.8
v 5.2 12 -6.2
v 5.2 12 -6.5
v 5.2 12 -6.6
v 5.2 12 -6.8
v 5.2 12.1 -6.2
v 5.2 12.1 -6.5
v 5.2 12.1 -6.6
v 5.2 12.1 -6.8
v 5.2 12.2 -6.5
v 5.2 12.2 -6.6
v 5.2 12.3 -6.2
v 5.2 12.3 -6.8
v 5.3 14.2 -6.3
v 5.3 14.2 -6.7
v 5.3 14.3 -6.3
v 5.3 14.3 -6.7
v 5.4 12.4 -6.4
v 5.4 12.4 -6.6
v 5.4 13 -6.4
v 5.4 13 -6.6
v 5.4 14.3 -6.4
v 5.4 14.3 -6.6
v 5.4 14.4 -6.4
v 5.4 14.4 -6.6
v 5.8 12.5 -6.2
v 5.8 12.5 -6.8
v 5.8 12.6 -6.1
v 5.8 12.6 -6.2
v 5.8 12.6 -6.8
v 5.8 12.6 -6.9
v 5.8 13.6 -6.1
v 5.8 13.6 -6.2
v 5.8 13.6 -6.8
v 5.8 13.6 -6.9
v 5.8 13.7 -6.2
v 5.8 13.7 -6.8
v 6 12.4 -5.9
v 6 12.4 -6
v 6 12.4 -7
v 6 12.4 -7.1
v 6 13.8 -5.9
v 6 13.8 -6
v 6 13.8 -7
v 6 13.8 -7.1
v 5 12.4 -5.9
v 5 12.4 -6
v 5 12.4 -7
v 5 12.4 -7.1
v 5 13.8 -5.9
v 5 13.8 -6
v 5 13.8 -7
v 5 13.8 -7.1
v 5.2 12.5 -6.2
v 5.2 12.5 -6.8
v 5.2 12.6 -6.1
v 5.2 12.6 -6.2
v 5.2 12.6 -6.8
v 5.2 12.6 -6.9
v 5.2 13.6 -6.1
v 5.2 13.6 -6.2
v 5.2 13.6 -6.8
v 5.2 13.6 -6.9
v 5.2 13.7 -6.2
v 5.2 13.7 -6.8
v 5.6 12.4 -6.4
v 5.6 12.4 -6.6
v 5.6 13 -6.4
v 5.6 13 -6.6
v 5.6 14.3 -6.4
v 5.6 14.3 -6.6
v 5.6 14.4 -6.4
v 5.6 14.4 -6.6
v 5.7 14.2 -6.3
v 5.7 14.2 -6.7
v 5.7 14.3 -6.3
v 5.7 14.3 -6.7
v 5.8 2.5 -6.2
v 5.8 2.5 -6.4
v 5.8 2.5 -6.5
v 5.8 2.5 -6.8
v 5.8 5 -6.2
v 5.8 5 -6.4
v 5.8 5 -6.5
v 5.8 5 -6.8
v 5.8 5.1 -6.2
v 5.8 5.1 -6.4
v 5.8 5.1 -6.5
v 5.8 5.1 -6.8
v 5.8 8 -6.2
v 5.8 8 -6.4
v 5.8 8 -6.5
v 5.8 8 -6.8
v 5.8 8.1 -6.2
v 5.8 8.1 -6.4
v 5.8 8.1 -6.5
v 5.8 8.1 -6.8
v 5.8 12 -6.2
v 5.8 12 -6.4
v 5.8 12 -6.5
v 5.8 12 -6.8
v 5.8 12.1 -6.2
v 5.8 12.1 -6.4
v 5.8 12.1 -6.5
v 5.8 12.1 -6.8
v 5.8 12.3 -6.2
v 5.8 12.3 -6.4
v 5.8 12.3 -6.5
v 5.8 12.3 -6.8
v 5.9 2.4 -6.1
v 5.9 2.4 -6.9
v 5.9 2.5 -6.1
v 5.9 2.5 -6.9
v 5.9 12.5 -6.1
v 5.9 12.5 -6.2
v 5.9 12.5 -6.8
v 5.9 12.5 -6.9
v 5.9 12.6 -6.2
v 5.9 12.6 -6.8
v 5.9 13.6 -6.2
v 5.9 13.6 -6.8
v 5.9 13.7 -6.1
v 5.9 13.7 -6.2
v 5.9 13.7 -6.8
v 5.9 13.7 -6.9
v 5.9 14.1 -6.1
v 5.9 14.1 -6.9
v 5.9 14.2 -6.1
v 5.9 14.2 -6.9
v 6 2.3 -6
v 6 2.3 -7
v 6 2.4 -6
v 6 2.4 -7
v 6 14 -6
v 6 14 -7
v 6 14.1 -6
v 6 14.1 -7
v 6.1 2.2 -5.9
v 6.1 2.2 -7.1
v 6.1 2.3 -5.9
v 6.1 2.3 -7.1
v 6.1 12.3 -5.9
v 6.1 12.3 -7.1
v 6.1 12.4 -5.9
v 6.1 12.4 -6
v 6.1 12.4 -7
v 6.1 12.4 -7.1
v 6.1 13.8 -5.9
v 6.1 13.8 -6
v 6.1 13.8 -7
v 6.1 13.8 -7.1
v 6.1 13.9 -5.9
v 6.1 13.9 -7.1
v 6.1 14 -5.9
v 6.1 14 -7.1
v 6.2 2 -5.8
v 6.2 2 -7.2
v 6.2 2.2 -5.8
v 6.2 2.2 -7.2
v 6.2 13.8 -5.8
v 6.2 13.8 -7.2
v 6.2 13.9 -5.8
v 6.2 13.9 -7.2
v 4.8 2 -5.8
v 4.8 2.2 -5.8
v 4.8 13.8 -5.8
v 4.8 13.9 -5.8
v 6.2 2 -5.8
v 6.2 2.2 -5.8
v 6.2 13.8 -5.8
v 6.2 13.9 -5.8
v 4.9 2.2 -5.9
v 4.9 2.3 -5.9
v 4.9 12.3 -5.9
v 4.9 12.4 -5.9
v 4.9 13.8 -5.9
v 4.9 13.9 -5.9
v 4.9 14 -5.9
v 5 12.4 -5.9
v 5 13.8 -5.9
v 6 12.4 -5.9
v 6 13.8 -5.9
v 6.1 2.2 -5.9
v 6.1 2.3 -5.9
v 6.1 12.3 -5.9
v 6.1 12.4 -5.9
v 6.1 13.8 -5.9
v 6.1 13.9 -5.9
v 6.1 14 -5.9
v 5 2.3 -6
v 5 2.4 -6
v 5 14 -6
v 5 14.1 -6
v 6 2.3 -6
v 6 2.4 -6
v 6 14 -6
v 6 14.1 -6
v 5.1 2.4 -6.1
v 5.1 2.5 -6.1
v 5.1 12.5 -6.1
v 5.1 13.7 -6.1
v 5.1 14.1 -6.1
v 5.1 14.2 -6.1
v 5.2 12.5 -6.1
v 5.2 12.6 -6.1
v 5.2 13.6 -6.1
v 5.2 13.7 -6.1
v 5.8 12.5 -6.1
v 5.8 12.6 -6.1
v 5.8 13.6 -6.1
v 5.8 13.7 -6.1
v 5.9 2.4 -6.1
v 5.9 2.5 -6.1
v 5.9 12.5 -6.1
v 5.9 13.7 -6.1
v 5.9 14.1 -6.1
v 5.9 14.2 -6.1
v 5.2 2.5 -6.2
v 5.2 5 -6.2
v 5.2 5.1 -6.2
v 5.2 8 -6.2
v 5.2 8.1 -6.2
v 5.2 12 -6.2
v 5.2 12.1 -6.2
v 5.2 12.3 -6.2
v 5.4 2.5 -6.2
v 5.4 5 -6.2
v 5.4 5.1 -6.2
v 5.4 8 -6.2
v 5.4 8.1 -6.2
v 5.4 12 -6.2
v 5.4 12.1 -6.2
v 5.4 12.3 -6.2
v 5.5 2.5 -6.2
v 5.5 5 -6.2
v 5.5 5.1 -6.2
v 5.5 8 -6.2
v 5.5 8.1 -6.2
v 5.5 12 -6.2
v 5.5 12.1 -6.2
v 5.5 12.3 -6.2
v 5.8 2.5 -6.2
v 5.8 5 -6.2
v 5.8 5.1 -6.2
v 5.8 8 -6.2
v 5.8 8.1 -6.2
v 5.8 12 -6.2
v 5.8 12.1 -6.2
v 5.8 12.3 -6.2
v 5.3 14.2 -6.3
v 5.3 14.3 -6.3
v 5.7 14.2 -6.3
v 5.7 14.3 -6.3
v 5.4 12.4 -6.4
v 5.4 13 -6.4
v 5.4 14.3 -6.4
v 5.4 14.4 -6.4
v 5.6 12.4 -6.4
v 5.6 13 -6.4
v 5.6 14.3 -6.4
v 5.6 14.4 -6.4
v 5.1 12.6 -6.8
v 5.1 13.6 -6.8
v 5.2 12.5 -6.8
v 5.2 12.6 -6.8
v 5.2 13.6 -6.8
v 5.2 13.7 -6.8
v 5.8 12.5 -6.8
v 5.8 12.6 -6.8
v 5.8 13.6 -6.8
v 5.8 13.7 -6.8
v 5.9 12.6 -6.8
v 5.9 13.6 -6.8
v 4.9 12.4 -7
v 4.9 13.8 -7
v 5 12.4 -7
v 5 13.8 -7
v 6 12.4 -7
v 6 13.8 -7
v 6.1 12.4 -7
v 6.1 13.8 -7
v 4.9 12.4 -6
v 4.9 13.8 -6
v 5 12.4 -6
v 5 13.8 -6
v 6 12.4 -6
v 6 13.8 -6
v 6.1 12.4 -6
v 6.1 13.8 -6
v 5.1 12.6 -6.2
v 5.1 13.6 -6.2
v 5.2 12.5 -6.2
v 5.2 12.6 -6.2
v 5.2 13.6 -6.2
v 5.2 13.7 -6.2
v 5.8 12.5 -6.2
v 5.8 12.6 -6.2
v 5.8 13.6 -6.2
v 5.8 13.7 -6.2
v 5.9 12.6 -6.2
v 5.9 13.6 -6.2
v 5.4 12.4 -6.6
v 5.4 13 -6.6
v 5.4 14.3 -6.6
v 5.4 14.4 -6.6
v 5.6 12.4 -6.6
v 5.6 13 -6.6
v 5.6 14.3 -6.6
v 5.6 14.4 -6.6
v 5.3 14.2 -6.7
v 5.3 14.3 -6.7
v 5.7 14.2 -6.7
v 5.7 14.3 -6.7
v 5.2 2.5 -6.8
v 5.2 5 -6.8
v 5.2 5.1 -6.8
v 5.2 8 -6.8
v 5.2 8.1 -6.8
v 5.2 12 -6.8
v 5.2 12.1 -6.8
v 5.2 12.3 -6.8
v 5.5 2.5 -6.8
v 5.5 5 -6.8
v 5.5 5.1 -6.8
v 5.5 8 -6.8
v 5.5 8.1 -6.8
v 5.5 12 -6.8
v 5.5 12.1 -6.8
v 5.5 12.3 -6.8
v 5.6 2.5 -6.8
v 5.6 5 -6.8
v 5.6 5.1 -6.8
v 5.6 8 -6.8
v 5.6 8.1 -6.8
v 5.6 12 -6.8
v 5.6 12.1 -6.8
v 5.6 12.3 -6.8
v 5.8 2.5 -6.8
v 5.8 5 -6.8
v 5.8 5.1 -6.8
v 5.8 8 -6.8
v 5.8 8.1 -6.8
v 5.8 12 -6.8
v 5.8 12.1 -6.8
v 5.8 12.3 -6.8
v 5.1 2.4 -6.9
v 5.1 2.5 -6.9
v 5.1 12.5 -6.9
v 5.1 13.7 -6.9
v 5.1 14.1 -6.9
v 5.1 14.2 -6.9
v 5.2 12.5 -6.9
v 5.2 12.6 -6.9
v 5.2 13.6 -6.9
v 5.2 13.7 -6.9
v 5.8 12.5 -6.9
v 5.8 12.6 -6.9
v 5.8 13.6 -6.9
v 5.8 13.7 -6.9
v 5.9 2.4 -6.9
v 5.9 2.5 -6.9
v 5.9 12.5 -6.9
v 5.9 13.7 -6.9
v 5.9 14.1 -6.9
v 5.9 14.2 -6.9
v 5 2.3 -7
v 5 2.4 -7
v 5 14 -7
v 5 14.1 -7
v 6 2.3 -7
v 6 2.4 -7
v 6 14 -7
v 6 14.1 -7
v 4.9 2.2 -7.1
v 4.9 2.3 -7.1
v 4.9 12.3 -7.1
v 4.9 12.4 -7.1
v 4.9 13.8 -7.1
v 4.9 13.9 -7.1
v 4.9 14 -7.1
v 5 12.4 -7.1
v 5 13.8 -7.1
v 6 12.4 -7.1
v 6 13.8 -7.1
v 6.1 2.2 -7.1
v 6.1 2.3 -7.1
v 6.1 12.3 -7.1
v 6.1 12.4 -7.1
v 6.1 13.8 -7.1
v 6.1 13.9 -7.1
v 6.1 14 -7.1
v 4.8 2 -7.2
v 4.8 2.2 -7.2
v 4.8 13.8 -7.2
v 4.8 13.9 -7.2
v 6.2 2 -7.2
v 6.2 2.2 -7.2
v 6.2 13.8 -7.2
v 6.2 13.9 -7.2
v 4.8 2 -5.8
v 6.2 2 -5.8
v 4.8 2 -7.2
v 6.2 2 -7.2
v 4.9 12.3 -5.9
v 6.1 12.3 -5.9
v 5.2 12.3 -6.2
v 5.4 12.3 -6.2
v 5.5 12.3 -6.2
v 5.8 12.3 -6.2
v 5.8 12.3 -6.4
v 5.8 12.3 -6.5
v 5.2 12.3 -6.8
v 5.5 12.3 -6.8
v 5.6 12.3 -6.8
v 5.8 12.3 -6.8
v 4.9 12.3 -7.1
v 6.1 12.3 -7.1
v 5.1 12.5 -6.1
v 5.2 12.5 -6.1
v 5.8 12.5 -6.1
v 5.9 12.5 -6.1
v 5.1 12.5 -6.2
v 5.2 12.5 -6.2
v 5.8 12.5 -6.2
v 5.9 12.5 -6.2
v 5.1 12.5 -6.8
v 5.2 12.5 -6.8
v 5.8 12.5 -6.8
v 5.9 12.5 -6.8
v 5.1 12.5 -6.9
v 5.2 12.5 -6.9
v 5.8 12.5 -6.9
v 5.9 12.5 -6.9
v 5.2 13.6 -6.1
v 5.8 13.6 -6.1
v 5.1 13.6 -6.2
v 5.2 13.6 -6.2
v 5.8 13.6 -6.2
v 5.9 13.6 -6.2
v 5.1 13.6 -6.8
v 5.2 13.6 -6.8
v 5.8 13.6 -6.8
v 5.9 13.6 -6.8
v 5.2 13.6 -6.9
v 5.8 13.6 -6.9
v 4.8 13.8 -5.8
v 6.2 13.8 -5.8
v 4.9 13.8 -5.9
v 5 13.8 -5.9
v 6 13.8 -5.9
v 6.1 13.8 -5.9
v 4.9 13.8 -6
v 5 13.8 -6
v 6 13.8 -6
v 6.1 13.8 -6
v 4.9 13.8 -7
v 5 13.8 -7
v 6 13.8 -7
v 6.1 13.8 -7
v 4.9 13.8 -7.1
v 5 13.8 -7.1
v 6 13.8 -7.1
v 6.1 13.8 -7.1
v 4.8 13.8 -7.2
v 6.2 13.8 -7.2
v 4.8 2.2 -5.8
v 6.2 2.2 -5.8
v 4.9 2.2 -5.9
v 6.1 2.2 -5.9
v 4.9 2.2 -7.1
v 6.1 2.2 -7.1
v 4.8 2.2 -7.2
v 6.2 2.2 -7.2
v 4.9 2.3 -5.9
v 6.1 2.3 -5.9
v 5 2.3 -6
v 6 2.3 -6
v 5 2.3 -7
v 6 2.3 -7
v 4.9 2.3 -7.1
v 6.1 2.3 -7.1
v 5 2.4 -6
v 6 2.4 -6
v 5.1 2.4 -6.1
v 5.9 2.4 -6.1
v 5.1 2.4 -6.9
v 5.9 2.4 -6.9
v 5 2.4 -7
v 6 2.4 -7
v 5.1 2.5 -6.1
v 5.9 2.5 -6.1
v 5.2 2.5 -6.2
v 5.4 2.5 -6.2
v 5.5 2.5 -6.2
v 5.8 2.5 -6.2
v 5.8 2.5 -6.4
v 5.2 2.5 -6.5
v 5.8 2.5 -6.5
v 5.2 2.5 -6.6
v 5.2 2.5 -6.8
v 5.5 2.5 -6.8
v 5.6 2.5 -6.8
v 5.8 2.5 -6.8
v 5.1 2.5 -6.9
v 5.9 2.5 -6.9
v 5 12.4 -5.9
v 6 12.4 -5.9
v 4.9 12.4 -6
v 5 12.4 -6
v 6 12.4 -6
v 6.1 12.4 -6
v 5.4 12.4 -6.4
v 5.6 12.4 -6.4
v 5.4 12.4 -6.6
v 5.6 12.4 -6.6
v 4.9 12.4 -7
v 5 12.4 -7
v 6 12.4 -7
v 6.1 12.4 -7
v 5 12.4 -7.1
v 6 12.4 -7.1
v 5.2 12.6 -6.1
v 5.8 12.6 -6.1
v 5.1 12.6 -6.2
v 5.2 12.6 -6.2
v 5.8 12.6 -6.2
v 5.9 12.6 -6.2
v 5.1 12.6 -6.8
v 5.2 12.6 -6.8
v 5.8 12.6 -6.8
v 5.9 12.6 -6.8
v 5.2 12.6 -6.9
v 5.8 12.6 -6.9
v 5.4 13 -6.4
v 5.6 13 -6.4
v 5.4 13 -6.6
v 5.6 13 -6.6
v 5.1 13.7 -6.1
v 5.2 13.7 -6.1
v 5.8 13.7 -6.1
v 5.9 13.7 -6.1
v 5.1 13.7 -6.2
v 5.2 13.7 -6.2
v 5.8 13.7 -6.2
v 5.9 13.7 -6.2
v 5.1 13.7 -6.8
v 5.2 13.7 -6.8
v 5.8 13.7 -6.8
v 5.9 13.7 -6.8
v 5.1 13.7 -6.9
v 5.2 13.7 -6.9
v 5.8 13.7 -6.9
v 5.9 13.7 -6.9
v 4.8 13.9 -5.8
v 6.2 13.9 -5.8
v 4.9 13.9 -5.9
v 6.1 13.9 -5.9
v 4.9 13.9 -7.1
v 6.1 13.9 -7.1
v 4.8 13.9 -7.2
v 6.2 13.9 -7.2
v 4.9 14 -5.9
v 6.1 14 -5.9
v 5 14 -6
v 6 14 -6
v 5 14 -7
v 6 14 -7
v 4.9 14 -7.1
v 6.1 14 -7.1
v 5 14.1 -6
v 6 14.1 -6
v 5.1 14.1 -6.1
v 5.9 14.1 -6.1
v 5.1 14.1 -6.9
v 5.9 14.1 -6.9
v 5 14.1 -7
v 6 14.1 -7
v 5.1 14.2 -6.1
v 5.9 14.2 -6.1
v 5.3 14.2 -6.3
v 5.7 14.2 -6.3
v 5.3 14.2 -6.7
v 5.7 14.2 -6.7
v 5.1 14.2 -6.9
v 5.9 14.2 -6.9
v 5.3 14.3 -6.3
v 5.7 14.3 -6.3
v 5.4 14.3 -6.4
v 5.6 14.3 -6.4
v 5.4 14.3 -6.6
v 5.6 14.3 -6.6
v 5.3 14.3 -6.7
v 5.7 14.3 -6.7
v 5.4 14.4 -6.4
v 5.6 14.4 -6.4
v 5.4 14.4 -6.6
v 5.6 14.4 -6.6

# faces
f 3/1/1 2/1/1 1/1/1
f 4/1/1 2/1/1 3/1/1
f 7/2/1 6/2/1 5/2/1
f 8/2/1 6/2/1 7/2/1
f 11/2/1 10/2/1 9/2/1
f 12/2/1 10/2/1 11/2/1
f 15/2/1 14/2/1 13/2/1
f 16/2/1 14/2/1 15/2/1
f 17/2/1 14/2/1 16/2/1
f 18/2/1 14/2/1 17/2/1
f 19/1/1 16/1/1 15/1/1
f 20/1/1 16/1/1 19/1/1
f 21/1/1 18/1/1 17/1/1
f 22/1/1 18/1/1 21/1/1
f 25/1/1 24/1/1 23/1/1
f 26/1/1 24/1/1 25/1/1
f 29/2/1 28/2/1 27/2/1
f 30/2/1 28/2/1 29/2/1
f 33/2/1 32/2/1 31/2/1
f 34/2/1 32/2/1 33/2/1
f 37/1/1 36/1/1 35/1/1
f 38/1/1 36/1/1 37/1/1
f 43/2/1 40/2/1 39/2/1
f 43/1/1 41/1/1 40/1/1
f 44/2/1 42/2/1 41/2/1
f 44/1/1 41/1/1 43/1/1
f 45/2/1 43/2/1 39/2/1
f 46/2/1 42/2/1 44/2/1
f 47/2/1 45/2/1 39/2/1
f 48/1/1 46/1/1 45/1/1
f 48/2/1 45/2/1 47/2/1
f 49/2/1 42/2/1 46/2/1
f 49/1/1 46/1/1 48/1/1
f 50/2/1 42/2/1 49/2/1
f 53/1/1 52/1/1 51/1/1
f 54/1/1 52/1/1 53/1/1
f 59/2/1 56/2/1 55/2/1
f 60/1/1 57/1/1 56/1/1
f 60/2/1 56/2/1 59/2/1
f 61/2/1 58/2/1 57/2/1
f 61/1/1 57/1/1 60/1/1
f 62/2/1 58/2/1 61/2/1
f 63/1/1 60/1/1 59/1/1
f 63/1/1 61/1/1 60/1/1
f 63/1/1 62/1/1 61/1/1
f 64/1/1 62/1/1 63/1/1
f 65/1/1 62/1/1 64/1/1
f 66/1/1 62/1/1 65/1/1
f 67/2/1 64/2/1 63/2/1
f 68/1/1 65/1/1 64/1/1
f 68/2/1 64/2/1 67/2/1
f 69/2/1 66/2/1 65/2/1
f 69/1/1 65/1/1 68/1/1
f 70/2/1 66/2/1 69/2/1
f 71/1/1 68/1/1 67/1/1
f 71/1/1 69/1/1 68/1/1
f 71/1/1 70/1/1 69/1/1
f 72/1/1 70/1/1 71/1/1
f 73/1/1 70/1/1 72/1/1
f 74/1/1 70/1/1 73/1/1
f 75/2/1 72/2/1 71/2/1
f 76/1/1 73/1/1 72/1/1
f 76/2/1 72/2/1 75/2/1
f 77/2/1 74/2/1 73/2/1
f 77/1/1 73/1/1 76/1/1
f 78/2/1 74/2/1 77/2/1
f 79/1/1 76/1/1 75/1/1
f 79/1/1 77/1/1 76/1/1
f 79/1/1 78/1/1 77/1/1
f 80/1/1 78/1/1 79/1/1
f 81/1/1 78/1/1 80/1/1
f 82/1/1 78/1/1 81/1/1
f 83/2/1 80/2/1 79/2/1
f 83/1/1 81/1/1 80/1/1
f 84/2/1 82/2/1 81/2/1
f 84/1/1 81/1/1 83/1/1
f 85/2/1 83/2/1 79/2/1
f 85/2/1 84/2/1 83/2/1
f 86/2/1 82/2/1 84/2/1
f 86/2/1 84/2/1 85/2/1
f 89/2/1 88/2/1 87/2/1
f 90/2/1 88/2/1 89/2/1
f 93/1/1 92/1/1 91/1/1
f 94/1/1 92/1/1 93/1/1
f 97/1/1 96/1/1 95/1/1
f 98/1/1 96/1/1 97/1/1
f 102/1/1 100/1/1 99/1/1
f 103/1/1 100/1/1 102/1/1
f 105/2/1 102/2/1 101/2/1
f 106/2/1 102/2/1 105/2/1
f 107/2/1 104/2/1 103/2/1
f 108/2/1 104/2/1 107/2/1
f 109/1/1 107/1/1 106/1/1
f 110/1/1 107/1/1 109/1/1
f 115/1/1 112/1/1 111/1/1
f 116/1/1 112/1/1 115/1/1
f 117/1/1 114/1/1 113/1/1
f 118/1/1 114/1/1 117/1/1
f 119/1/2 120/1/2 123/1/2
f 123/1/2 120/1/2 124/1/2
f 121/1/2 122/1/2 125/1/2
f 125/1/2 122/1/2 126/1/2
f 127/1/2 128/1/2 130/1/2
f 130/1/2 128/1/2 131/1/2
f 129/2/2 130/2/2 133/2/2
f 133/2/2 130/2/2 134/2/2
f 131/2/2 132/2/2 135/2/2
f 135/2/2 132/2/2 136/2/2
f 134/1/2 135/1/2 137/1/2
f 137/1/2 135/1/2 138/1/2
f 139/1/2 140/1/2 141/1/2
f 141/1/2 140/1/2 142/1/2
f 143/1/2 144/1/2 145/1/2
f 145/1/2 144/1/2 146/1/2
f 147/2/2 148/2/2 149/2/2
f 149/2/2 148/2/2 150/2/2
f 151/2/2 152/2/2 155/2/2
f 152/1/2 153/1/2 156/1/2
f 155/2/2 152/2/2 156/2/2
f 153/2/2 154/2/2 157/2/2
f 156/1/2 153/1/2 157/1/2
f 157/2/2 154/2/2 158/2/2
f 155/1/2 156/1/2 159/1/2
f 156/1/2 157/1/2 159/1/2
f 157/1/2 158/1/2 159/1/2
f 159/1/2 158/1/2 160/1/2
f 160/1/2 158/1/2 161/1/2
f 161/1/2 158/1/2 162/1/2
f 159/2/2 160/2/2 163/2/2
f 160/1/2 161/1/2 164/1/2
f 163/2/2 160/2/2 164/2/2
f 161/2/2 162/2/2 165/2/2
f 164/1/2 161/1/2 165/1/2
f 165/2/2 162/2/2 166/2/2
f 163/1/2 164/1/2 167/1/2
f 164/1/2 165/1/2 167/1/2
f 165/1/2 166/1/2 167/1/2
f 167/1/2 166/1/2 168/1/2
f 168/1/2 166/1/2 169/1/2
f 169/1/2 166/1/2 170/1/2
f 167/2/2 168/2/2 171/2/2
f 168/1/2 169/1/2 172/1/2
f 171/2/2 168/2/2 172/2/2
f 169/2/2 170/2/2 173/2/2
f 172/1/2 169/1/2 173/1/2
f 173/2/2 170/2/2 174/2/2
f 171/1/2 172/1/2 175/1/2
f 172/1/2 173/1/2 175/1/2
f 173/1/2 174/1/2 175/1/2
f 175/1/2 174/1/2 176/1/2
f 176/1/2 174/1/2 177/1/2
f 177/1/2 174/1/2 178/1/2
f 175/2/2 176/2/2 179/2/2
f 176/1/2 177/1/2 180/1/2
f 179/2/2 176/2/2 180/2/2
f 177/2/2 178/2/2 181/2/2
f 180/1/2 177/1/2 181/1/2
f 181/2/2 178/2/2 182/2/2
f 183/1/2 184/1/2 185/1/2
f 185/1/2 184/1/2 186/1/2
f 187/2/2 188/2/2 191/2/2
f 188/1/2 189/1/2 191/1/2
f 189/2/2 190/2/2 192/2/2
f 191/1/2 189/1/2 192/1/2
f 187/2/2 191/2/2 193/2/2
f 192/2/2 190/2/2 194/2/2
f 187/2/2 193/2/2 195/2/2
f 193/1/2 194/1/2 196/1/2
f 195/2/2 193/2/2 196/2/2
f 194/2/2 190/2/2 197/2/2
f 196/1/2 194/1/2 197/1/2
f 197/2/2 190/2/2 198/2/2
f 199/1/2 200/1/2 201/1/2
f 201/1/2 200/1/2 202/1/2
f 203/2/2 204/2/2 205/2/2
f 205/2/2 204/2/2 206/2/2
f 207/2/2 208/2/2 209/2/2
f 209/2/2 208/2/2 210/2/2
f 211/2/2 212/2/2 213/2/2
f 213/2/2 212/2/2 214/2/2
f 215/2/2 216/2/2 217/2/2
f 217/2/2 216/2/2 218/2/2
f 218/2/2 216/2/2 219/2/2
f 219/2/2 216/2/2 220/2/2
f 217/1/2 218/1/2 221/1/2
f 221/1/2 218/1/2 222/1/2
f 219/1/2 220/1/2 223/1/2
f 223/1/2 220/1/2 224/1/2
f 225/1/2 226/1/2 227/1/2
f 227/1/2 226/1/2 228/1/2
f 229/1/2 230/1/2 231/1/2
f 231/1/2 230/1/2 232/1/2
f 233/2/2 234/2/2 235/2/2
f 235/2/2 234/2/2 236/2/2
f 241/1/3 238/1/3 237/1/3
f 242/1/3 238/1/3 241/1/3
f 243/2/3 240/2/3 239/2/3
f 244/2/3 240/2/3 243/2/3
f 252/2/3 248/2/3 247/2/3
f 252/1/3 249/1/3 248/1/3
f 253/1/3 249/1/3 252/1/3
f 254/2/3 252/2/3 247/2/3
f 256/2/3 246/2/3 245/2/3
f 257/2/3 246/2/3 256/2/3
f 258/2/3 254/2/3 247/2/3
f 259/1/3 255/1/3 254/1/3
f 259/2/3 254/2/3 258/2/3
f 260/1/3 255/1/3 259/1/3
f 261/1/3 251/1/3 250/1/3
f 262/1/3 251/1/3 261/1/3
f 267/2/3 264/2/3 263/2/3
f 268/2/3 264/2/3 267/2/3
f 269/2/3 266/2/3 265/2/3
f 270/2/3 266/2/3 269/2/3
f 277/2/3 274/2/3 273/2/3
f 278/2/3 274/2/3 277/2/3
f 279/2/3 274/2/3 278/2/3
f 280/2/3 274/2/3 279/2/3
f 281/1/3 278/1/3 277/1/3
f 282/1/3 278/1/3 281/1/3
f 283/1/3 280/1/3 279/1/3
f 284/1/3 280/1/3 283/1/3
f 285/1/3 272/1/3 271/1/3
f 286/1/3 272/1/3 285/1/3
f 287/2/3 282/2/3 281/2/3
f 287/2/3 283/2/3 282/2/3
f 287/2/3 284/2/3 283/2/3
f 288/2/3 284/2/3 287/2/3
f 289/1/3 276/1/3 275/1/3
f 290/1/3 276/1/3 289/1/3
f 299/2/3 292/2/3 291/2/3
f 300/1/3 293/1/3 292/1/3
f 300/2/3 292/2/3 299/2/3
f 301/2/3 294/2/3 293/2/3
f 301/1/3 293/1/3 300/1/3
f 302/1/3 295/1/3 294/1/3
f 302/2/3 294/2/3 301/2/3
f 303/2/3 296/2/3 295/2/3
f 303/1/3 295/1/3 302/1/3
f 304/1/3 297/1/3 296/1/3
f 304/2/3 296/2/3 303/2/3
f 305/2/3 298/2/3 297/2/3
f 305/1/3 297/1/3 304/1/3
f 306/2/3 298/2/3 305/2/3
f 307/1/3 304/1/3 303/1/3
f 307/1/3 300/1/3 299/1/3
f 307/1/3 306/1/3 305/1/3
f 307/1/3 305/1/3 304/1/3
f 307/1/3 303/1/3 302/1/3
f 307/1/3 302/1/3 301/1/3
f 307/1/3 301/1/3 300/1/3
f 308/1/3 306/1/3 307/1/3
f 309/1/3 306/1/3 308/1/3
f 310/1/3 306/1/3 309/1/3
f 311/1/3 306/1/3 310/1/3
f 312/1/3 306/1/3 311/1/3
f 313/1/3 306/1/3 312/1/3
f 314/1/3 306/1/3 313/1/3
f 315/2/3 308/2/3 307/2/3
f 316/1/3 309/1/3 308/1/3
f 316/2/3 308/2/3 315/2/3
f 317/2/3 310/2/3 309/2/3
f 317/1/3 309/1/3 316/1/3
f 318/1/3 311/1/3 310/1/3
f 318/2/3 310/2/3 317/2/3
f 319/2/3 312/2/3 311/2/3
f 319/1/3 311/1/3 318/1/3
f 320/1/3 313/1/3 312/1/3
f 320/2/3 312/2/3 319/2/3
f 321/2/3 314/2/3 313/2/3
f 321/1/3 313/1/3 320/1/3
f 322/2/3 314/2/3 321/2/3
f 325/2/3 324/2/3 323/2/3
f 326/2/3 324/2/3 325/2/3
f 331/1/3 328/1/3 327/1/3
f 332/1/3 328/1/3 331/1/3
f 333/1/3 330/1/3 329/1/3
f 334/1/3 330/1/3 333/1/3
f 338/2/3 336/2/3 335/2/3
f 339/2/3 336/2/3 338/2/3
f 341/1/3 338/1/3 337/1/3
f 342/1/3 338/1/3 341/1/3
f 343/1/3 340/1/3 339/1/3
f 344/1/3 340/1/3 343/1/3
f 345/2/3 343/2/3 342/2/3
f 346/2/3 343/2/3 345/2/3
f 349/1/3 348/1/3 347/1/3
f 350/1/3 348/1/3 349/1/3
f 353/1/3 352/1/3 351/1/3
f 354/1/3 352/1/3 353/1/3
f 355/1/4 356/1/4 357/1/4
f 357/1/4 356/1/4 358/1/4
f 359/1/4 360/1/4 361/1/4
f 361/1/4 360/1/4 362/1/4
f 363/2/4 364/2/4 366/2/4
f 366/2/4 364/2/4 367/2/4
f 365/1/4 366/1/4 369/1/4
f 369/1/4 366/1/4 370/1/4
f 367/1/4 368/1/4 371/1/4
f 371/1/4 368/1/4 372/1/4
f 370/2/4 371/2/4 373/2/4
f 373/2/4 371/2/4 374/2/4
f 375/1/4 376/1/4 379/1/4
f 379/1/4 376/1/4 380/1/4
f 377/1/4 378/1/4 381/1/4
f 381/1/4 378/1/4 382/1/4
f 383/2/4 384/2/4 385/2/4
f 385/2/4 384/2/4 386/2/4
f 387/2/4 388/2/4 395/2/4
f 388/1/4 389/1/4 396/1/4
f 395/2/4 388/2/4 396/2/4
f 389/2/4 390/2/4 397/2/4
f 396/1/4 389/1/4 397/1/4
f 390/1/4 391/1/4 398/1/4
f 397/2/4 390/2/4 398/2/4
f 391/2/4 392/2/4 399/2/4
f 398/1/4 391/1/4 399/1/4
f 392/1/4 393/1/4 400/1/4
f 399/2/4 392/2/4 400/2/4
f 393/2/4 394/2/4 401/2/4
f 400/1/4 393/1/4 401/1/4
f 401/2/4 394/2/4 402/2/4
f 399/1/4 400/1/4 403/1/4
f 395/1/4 396/1/4 403/1/4
f 401/1/4 402/1/4 403/1/4
f 400/1/4 401/1/4 403/1/4
f 398/1/4 399/1/4 403/1/4
f 397/1/4 398/1/4 403/1/4
f 396/1/4 397/1/4 403/1/4
f 403/1/4 402/1/4 404/1/4
f 404/1/4 402/1/4 405/1/4
f 405/1/4 402/1/4 406/1/4
f 406/1/4 402/1/4 407/1/4
f 407/1/4 402/1/4 408/1/4
f 408/1/4 402/1/4 409/1/4
f 409/1/4 402/1/4 410/1/4
f 403/2/4 404/2/4 411/2/4
f 404/1/4 405/1/4 412/1/4
f 411/2/4 404/2/4 412/2/4
f 405/2/4 406/2/4 413/2/4
f 412/1/4 405/1/4 413/1/4
f 406/1/4 407/1/4 414/1/4
f 413/2/4 406/2/4 414/2/4
f 407/2/4 408/2/4 415/2/4
f 414/1/4 407/1/4 415/1/4
f 408/1/4 409/1/4 416/1/4
f 415/2/4 408/2/4 416/2/4
f 409/2/4 410/2/4 417/2/4
f 416/1/4 409/1/4 417/1/4
f 417/2/4 410/2/4 418/2/4
f 421/2/4 422/2/4 425/2/4
f 425/2/4 422/2/4 426/2/4
f 426/2/4 422/2/4 427/2/4
f 427/2/4 422/2/4 428/2/4
f 425/1/4 426/1/4 429/1/4
f 429/1/4 426/1/4 430/1/4
f 427/1/4 428/1/4 431/1/4
f 431/1/4 428/1/4 432/1/4
f 419/1/4 420/1/4 433/1/4
f 433/1/4 420/1/4 434/1/4
f 429/2/4 430/2/4 435/2/4
f 430/2/4 431/2/4 435/2/4
f 431/2/4 432/2/4 435/2/4
f 435/2/4 432/2/4 436/2/4
f 423/1/4 424/1/4 437/1/4
f 437/1/4 424/1/4 438/1/4
f 439/2/4 440/2/4 443/2/4
f 443/2/4 440/2/4 444/2/4
f 441/2/4 442/2/4 445/2/4
f 445/2/4 442/2/4 446/2/4
f 449/2/4 450/2/4 454/2/4
f 450/1/4 451/1/4 454/1/4
f 454/1/4 451/1/4 455/1/4
f 449/2/4 454/2/4 456/2/4
f 447/2/4 448/2/4 458/2/4
f 458/2/4 448/2/4 459/2/4
f 449/2/4 456/2/4 460/2/4
f 456/1/4 457/1/4 461/1/4
f 460/2/4 456/2/4 461/2/4
f 461/1/4 457/1/4 462/1/4
f 452/1/4 453/1/4 463/1/4
f 463/1/4 453/1/4 464/1/4
f 465/1/4 466/1/4 469/1/4
f 469/1/4 466/1/4 470/1/4
f 467/2/4 468/2/4 471/2/4
f 471/2/4 468/2/4 472/2/4
f 475/1/5 474/1/5 473/1/5
f 476/1/5 474/1/5 475/1/5
f 479/2/5 478/2/5 477/2/5
f 480/2/5 478/2/5 479/2/5
f 481/2/5 478/2/5 480/2/5
f 482/2/5 478/2/5 481/2/5
f 483/2/5 478/2/5 482/2/5
f 484/2/5 478/2/5 483/2/5
f 485/2/5 479/2/5 477/2/5
f 488/2/5 478/2/5 484/2/5
f 489/2/5 487/2/5 486/2/5
f 489/2/5 488/2/5 487/2/5
f 489/2/5 485/2/5 477/2/5
f 489/2/5 486/2/5 485/2/5
f 490/2/5 478/2/5 488/2/5
f 490/2/5 488/2/5 489/2/5
f 495/2/5 492/2/5 491/2/5
f 496/1/5 493/1/5 492/1/5
f 496/2/5 492/2/5 495/2/5
f 497/2/5 494/2/5 493/2/5
f 497/1/5 493/1/5 496/1/5
f 498/2/5 494/2/5 497/2/5
f 499/1/5 496/1/5 495/1/5
f 500/1/5 496/1/5 499/1/5
f 501/1/5 498/1/5 497/1/5
f 502/1/5 498/1/5 501/1/5
f 503/2/5 500/2/5 499/2/5
f 504/1/5 501/1/5 500/1/5
f 504/2/5 500/2/5 503/2/5
f 505/2/5 502/2/5 501/2/5
f 505/1/5 501/1/5 504/1/5
f 506/2/5 502/2/5 505/2/5
f 510/1/5 508/1/5 507/1/5
f 511/1/5 508/1/5 510/1/5
f 513/1/5 510/1/5 509/1/5
f 514/1/5 510/1/5 513/1/5
f 515/1/5 512/1/5 511/1/5
f 516/1/5 512/1/5 515/1/5
f 517/1/5 515/1/5 514/1/5
f 518/1/5 515/1/5 517/1/5
f 521/2/5 520/2/5 519/2/5
f 522/2/5 520/2/5 521/2/5
f 523/2/5 520/2/5 522/2/5
f 524/2/5 520/2/5 523/2/5
f 525/2/5 521/2/5 519/2/5
f 526/2/5 523/2/5 522/2/5
f 527/2/5 523/2/5 526/2/5
f 528/2/5 520/2/5 524/2/5
f 529/2/5 527/2/5 526/2/5
f 529/2/5 528/2/5 527/2/5
f 529/2/5 525/2/5 519/2/5
f 529/2/5 526/2/5 525/2/5
f 530/2/5 528/2/5 529/2/5
f 531/2/5 528/2/5 530/2/5
f 532/2/5 520/2/5 528/2/5
f 532/2/5 528/2/5 531/2/5
f 533/2/5 529/2/5 519/2/5
f 534/2/5 531/2/5 530/2/5
f 535/2/5 531/2/5 534/2/5
f 536/2/5 520/2/5 532/2/5
f 537/2/5 533/2/5 519/2/5
f 537/2/5 536/2/5 535/2/5
f 537/2/5 535/2/5 534/2/5
f 537/2/5 534/2/5 533/2/5
f 538/2/5 520/2/5 536/2/5
f 538/2/5 536/2/5 537/2/5
f 539/1/6 540/1/6 541/1/6
f 541/1/6 540/1/6 542/1/6
f 539/1/6 541/1/6 543/1/6
f 542/1/6 540/1/6 544/1/6
f 539/1/6 543/1/6 545/1/6
f 543/1/6 544/1/6 545/1/6
f 544/1/6 540/1/6 546/1/6
f 545/1/6 544/1/6 546/1/6
f 547/2/6 548/2/6 549/2/6
f 549/2/6 548/2/6 550/2/6
f 547/2/6 549/2/6 551/2/6
f 550/2/6 548/2/6 552/2/6
f 547/2/6 551/2/6 553/2/6
f 551/2/6 552/2/6 553/2/6
f 552/2/6 548/2/6 554/2/6
f 553/2/6 552/2/6 554/2/6
f 555/2/6 556/2/6 557/2/6
f 557/2/6 556/2/6 558/2/6
f 555/2/6 557/2/6 559/2/6
f 558/2/6 556/2/6 560/2/6
f 555/2/6 559/2/6 561/2/6
f 559/2/6 560/2/6 561/2/6
f 560/2/6 556/2/6 562/2/6
f 561/2/6 560/2/6 562/2/6
f 563/1/6 564/1/6 565/1/6
f 565/1/6 564/1/6 566/1/6
f 566/1/6 564/1/6 567/1/6
f 567/1/6 564/1/6 568/1/6
f 568/1/6 564/1/6 569/1/6
f 563/1/6 565/1/6 570/1/6
f 569/1/6 564/1/6 571/1/6
f 563/1/6 570/1/6 572/1/6
f 563/1/6 572/1/6 573/1/6
f 571/1/6 564/1/6 576/1/6
f 574/1/6 575/1/6 577/1/6
f 575/1/6 576/1/6 577/1/6
f 563/1/6 573/1/6 577/1/6
f 573/1/6 574/1/6 577/1/6
f 576/1/6 564/1/6 578/1/6
f 577/1/6 576/1/6 578/1/6
f 579/2/6 580/2/6 582/2/6
f 582/2/6 580/2/6 583/2/6
f 581/2/6 582/2/6 585/2/6
f 583/2/6 584/2/6 585/2/6
f 582/2/6 583/2/6 585/2/6
f 585/2/6 584/2/6 586/2/6
f 581/2/6 585/2/6 587/2/6
f 586/2/6 584/2/6 588/2/6
f 581/2/6 587/2/6 589/2/6
f 587/2/6 588/2/6 589/2/6
f 589/2/6 588/2/6 590/2/6
f 588/2/6 584/2/6 591/2/6
f 590/2/6 588/2/6 591/2/6
f 591/2/6 584/2/6 592/2/6
f 590/2/6 591/2/6 593/2/6
f 593/2/6 591/2/6 594/2/6
f 595/1/6 596/1/6 598/1/6
f 598/1/6 596/1/6 599/1/6
f 597/1/6 598/1/6 601/1/6
f 601/1/6 598/1/6 602/1/6
f 599/1/6 600/1/6 603/1/6
f 603/1/6 600/1/6 604/1/6
f 602/1/6 603/1/6 605/1/6
f 605/1/6 603/1/6 606/1/6
f 607/1/6 608/1/6 609/1/6
f 609/1/6 608/1/6 610/1/6
f 611/2/6 612/2/6 615/2/6
f 612/1/6 613/1/6 616/1/6
f 615/2/6 612/2/6 616/2/6
f 613/2/6 614/2/6 617/2/6
f 616/1/6 613/1/6 617/1/6
f 617/2/6 614/2/6 618/2/6
f 615/1/6 616/1/6 619/1/6
f 619/1/6 616/1/6 620/1/6
f 617/1/6 618/1/6 621/1/6
f 621/1/6 618/1/6 622/1/6
f 619/2/6 620/2/6 623/2/6
f 620/1/6 621/1/6 624/1/6
f 623/2/6 620/2/6 624/2/6
f 621/2/6 622/2/6 625/2/6
f 624/1/6 621/1/6 625/1/6
f 625/2/6 622/2/6 626/2/6
f 627/2/6 628/2/6 629/2/6
f 629/2/6 628/2/6 630/2/6
f 627/2/6 629/2/6 631/2/6
f 630/2/6 628/2/6 632/2/6
f 627/2/6 631/2/6 633/2/6
f 631/2/6 632/2/6 633/2/6
f 632/2/6 628/2/6 634/2/6
f 633/2/6 632/2/6 634/2/6
f 635/1/6 636/1/6 637/1/6
f 637/1/6 636/1/6 638/1/6
f 635/1/6 637/1/6 639/1/6
f 638/1/6 636/1/6 640/1/6
f 635/1/6 639/1/6 641/1/6
f 639/1/6 640/1/6 641/1/6
f 640/1/6 636/1/6 642/1/6
f 641/1/6 640/1/6 642/1/6
f 643/2/6 644/2/6 645/2/6
f 645/2/6 644/2/6 646/2/6
f 643/2/6 645/2/6 647/2/6
f 646/2/6 644/2/6 648/2/6
f 643/2/6 647/2/6 649/2/6
f 647/2/6 648/2/6 649/2/6
f 648/2/6 644/2/6 650/2/6
f 649/2/6 648/2/6 650/2/6
f 651/1/6 652/1/6 653/1/6
f 653/1/6 652/1/6 654/1/6
f 651/1/6 653/1/6 655/1/6
f 654/1/6 652/1/6 656/1/6
f 651/1/6 655/1/6 657/1/6
f 655/1/6 656/1/6 657/1/6
f 656/1/6 652/1/6 658/1/6
f 657/1/6 656/1/6 658/1/6
f 659/2/6 660/2/6 661/2/6
f 661/2/6 660/2/6 662/2/6
f 659/2/6 661/2/6 663/2/6
f 662/2/6 660/2/6 664/2/6
f 659/2/6 663/2/6 665/2/6
f 663/2/6 664/2/6 665/2/6
f 664/2/6 660/2/6 666/2/6
f 665/2/6 664/2/6 666/2/6
f 667/1/6 668/1/6 669/1/6
f 669/1/6 668/1/6 670/1/6
